<svg xmlns="http://www.w3.org/2000/svg" width="30" height="29" viewBox="0 0 30 29" fill="none"><path d="M14.3667 2.05994C14.4251 1.94189 14.5154 1.84252 14.6273 1.77304C14.7392 1.70356 14.8683 1.66675 15 1.66675C15.1318 1.66675 15.2609 1.70356 15.3728 1.77304C15.4847 1.84252 15.5749 1.94189 15.6334 2.05994L18.7134 8.29861C18.9163 8.70923 19.2158 9.06448 19.5862 9.33388C19.9566 9.60327 20.3869 9.77876 20.84 9.84527L27.728 10.8533C27.8586 10.8722 27.9812 10.9272 28.082 11.0122C28.1829 11.0972 28.2579 11.2087 28.2987 11.3341C28.3395 11.4595 28.3444 11.5938 28.3128 11.7219C28.2812 11.8499 28.2145 11.9665 28.12 12.0586L23.1387 16.9093C22.8102 17.2294 22.5644 17.6246 22.4225 18.0608C22.2806 18.497 22.2468 18.9611 22.324 19.4133L23.5 26.2666C23.5231 26.3971 23.509 26.5314 23.4594 26.6542C23.4098 26.777 23.3266 26.8834 23.2194 26.9613C23.1123 27.0391 22.9853 27.0853 22.8532 27.0945C22.721 27.1037 22.589 27.0755 22.472 27.0133L16.3147 23.7759C15.909 23.5629 15.4576 23.4516 14.9994 23.4516C14.5411 23.4516 14.0897 23.5629 13.684 23.7759L7.52804 27.0133C7.41115 27.0752 7.27924 27.103 7.14731 27.0936C7.01538 27.0842 6.88873 27.038 6.78177 26.9602C6.6748 26.8824 6.59182 26.7762 6.54225 26.6536C6.49268 26.5309 6.47852 26.3969 6.50137 26.2666L7.67604 19.4146C7.75363 18.9622 7.72002 18.4978 7.57809 18.0613C7.43616 17.6249 7.19018 17.2295 6.86137 16.9093L1.88004 12.0599C1.78483 11.968 1.71736 11.8511 1.68532 11.7227C1.65328 11.5943 1.65796 11.4594 1.69881 11.3335C1.73967 11.2076 1.81506 11.0957 1.91641 11.0106C2.01775 10.9254 2.14098 10.8705 2.27204 10.8519L9.15871 9.84527C9.61238 9.77927 10.0432 9.60402 10.4142 9.33459C10.7851 9.06516 11.085 8.70963 11.288 8.29861L14.3667 2.05994Z" stroke="#F472B6" stroke-width="2.66667" stroke-linecap="round" stroke-linejoin="round"></path></svg>