<svg xmlns="http://www.w3.org/2000/svg" width="32" height="32" viewBox="0 0 32 32" fill="none"><g clip-path="url(#clip0_307_1858)"><path d="M9.33317 6.66671V2.66671C9.33317 2.31309 9.47365 1.97395 9.7237 1.7239C9.97374 1.47385 10.3129 1.33337 10.6665 1.33337H21.3332C21.6868 1.33337 22.0259 1.47385 22.276 1.7239C22.526 1.97395 22.6665 2.31309 22.6665 2.66671V6.66671H27.9998C28.3535 6.66671 28.6926 6.80718 28.9426 7.05723C29.1927 7.30728 29.3332 7.64642 29.3332 8.00004V26.6667C29.3332 27.0203 29.1927 27.3595 28.9426 27.6095C28.6926 27.8596 28.3535 28 27.9998 28H3.99984C3.64622 28 3.30708 27.8596 3.05703 27.6095C2.80698 27.3595 2.6665 27.0203 2.6665 26.6667V8.00004C2.6665 7.64642 2.80698 7.30728 3.05703 7.05723C3.30708 6.80718 3.64622 6.66671 3.99984 6.66671H9.33317ZM19.9998 9.33337H11.9998V25.3334H19.9998V9.33337ZM9.33317 9.33337H5.33317V25.3334H9.33317V9.33337ZM22.6665 9.33337V25.3334H26.6665V9.33337H22.6665ZM11.9998 4.00004V6.66671H19.9998V4.00004H11.9998Z" fill="#C483FE"></path></g><defs><clipPath id="clip0_307_1858"><rect width="32" height="32" fill="white"></rect></clipPath></defs></svg>