<svg xmlns="http://www.w3.org/2000/svg" width="32" height="32" viewBox="0 0 32 32" fill="none"><g clip-path="url(#clip0_307_1857)"><path d="M4.00016 25.3333V7.59994C4.00008 7.32624 4.08423 7.05915 4.24119 6.83493C4.39814 6.6107 4.6203 6.44021 4.8775 6.34661L17.7722 1.65861C17.8729 1.62195 17.981 1.61012 18.0872 1.62412C18.1935 1.63812 18.2948 1.67754 18.3826 1.73904C18.4704 1.80053 18.5421 1.88229 18.5916 1.97738C18.641 2.07247 18.6669 2.17809 18.6668 2.28528V8.88927L27.0882 11.6959C27.3538 11.7844 27.5848 11.9542 27.7485 12.1813C27.9122 12.4085 28.0002 12.6813 28.0002 12.9613V25.3333H30.6668V27.9999H1.3335V25.3333H4.00016ZM6.66683 25.3333H16.0002V5.13994L6.66683 8.53461V25.3333ZM25.3335 25.3333V13.9226L18.6668 11.6999V25.3333H25.3335Z" fill="#008CFE"></path></g><defs><clipPath id="clip0_307_1857"><rect width="32" height="32" fill="white"></rect></clipPath></defs></svg>