<svg xmlns="http://www.w3.org/2000/svg" width="32" height="32" viewBox="0 0 32 32" fill="none"><g clip-path="url(#clip0_307_1860)"><path d="M22.6665 4.00004H27.9998C28.3535 4.00004 28.6926 4.14052 28.9426 4.39056C29.1927 4.64061 29.3332 4.97975 29.3332 5.33337V26.6667C29.3332 27.0203 29.1927 27.3595 28.9426 27.6095C28.6926 27.8596 28.3535 28 27.9998 28H3.99984C3.64622 28 3.30708 27.8596 3.05703 27.6095C2.80698 27.3595 2.6665 27.0203 2.6665 26.6667V5.33337C2.6665 4.97975 2.80698 4.64061 3.05703 4.39056C3.30708 4.14052 3.64622 4.00004 3.99984 4.00004H9.33317V1.33337H11.9998V4.00004H19.9998V1.33337H22.6665V4.00004ZM26.6665 12V6.66671H22.6665V9.33337H19.9998V6.66671H11.9998V9.33337H9.33317V6.66671H5.33317V12H26.6665ZM26.6665 14.6667H5.33317V25.3334H26.6665V14.6667ZM7.99984 17.3334H14.6665V22.6667H7.99984V17.3334Z" fill="#F472B6"></path></g><defs><clipPath id="clip0_307_1860"><rect width="32" height="32" fill="white"></rect></clipPath></defs></svg>