<svg xmlns="http://www.w3.org/2000/svg" width="350" height="100" viewBox="0 0 350 100" fill="none"><rect width="350" height="100" fill="url(#paint0_linear_512_545)"></rect><path fill-rule="evenodd" clip-rule="evenodd" d="M210.07 44.709C210.07 44.4753 209.882 44.2858 209.65 44.2858H207.163C207.074 44.2858 206.986 44.3149 206.914 44.3688L205.2 45.6467C205.093 45.7265 205.03 45.8527 205.03 45.9869V51.1641C205.03 51.3978 204.842 51.5873 204.61 51.5873H201.239H201.145C200.913 51.5873 200.725 51.3978 200.725 51.1641V45.1315C200.725 44.9987 200.787 44.8737 200.892 44.7937L205.279 41.455C205.457 41.3197 205.691 41.3769 205.804 41.5375C205.845 41.5964 205.87 41.6692 205.87 41.7515C205.87 42.0562 206.214 42.2314 206.457 42.0506L207.754 41.0878C207.826 41.0342 207.913 41.0053 208.003 41.0053H213.955C214.187 41.0053 214.375 41.1948 214.375 41.4286V47.4614C214.375 47.594 214.313 47.719 214.208 47.799L210.743 50.4394C210.467 50.6502 210.07 50.4513 210.07 50.1017V44.709ZM206.482 40.0604C206.183 39.8847 205.839 39.788 205.487 39.7891C205.093 39.7903 204.69 39.9145 204.33 40.1882L200.197 43.3334L199.943 43.5269C199.5 43.8642 199.218 44.3702 199.161 44.9207C199.154 44.9903 199.15 45.0607 199.15 45.1315V48.9418V49.6826V51.1641C199.15 51.4185 199.197 51.662 199.282 51.886C199.48 52.4046 199.886 52.8195 200.396 53.028C200.627 53.1226 200.88 53.1746 201.145 53.1746H204.61C205.712 53.1746 206.605 52.2745 206.605 51.1641V46.5736L207.544 45.8731H208.495V50.1017C208.495 51.7622 210.379 52.7069 211.693 51.7055L215.158 49.0651C215.657 48.6851 215.95 48.0915 215.95 47.4614V41.4286C215.95 40.3182 215.057 39.418 213.955 39.418H208.003C207.85 39.418 207.698 39.4359 207.55 39.4706C207.544 39.4719 207.538 39.4734 207.532 39.4748C207.276 39.5374 207.034 39.6508 206.82 39.81L206.482 40.0604Z" fill="#09090B"></path><path fill-rule="evenodd" clip-rule="evenodd" d="M200.457 52.9811L200.396 53.028L200.203 53.1746L195.591 56.6839C195.245 56.9474 194.823 57.09 194.389 57.09H186.445C186.214 57.09 185.992 57.0504 185.786 56.9776C185.259 56.7919 184.834 56.3903 184.614 55.878C184.508 55.6332 184.45 55.3632 184.45 55.0794V49.0468C184.45 49.0117 184.451 48.9767 184.453 48.9418C184.464 48.7214 184.511 48.5066 184.591 48.3054C184.68 48.0785 184.81 47.8689 184.975 47.6875C185.056 47.5985 185.145 47.5163 185.243 47.4423L186.55 46.4475L190.109 43.7394C190.319 43.5794 190.557 43.4639 190.809 43.398C190.972 43.3553 191.14 43.3334 191.311 43.3334H192.825H199.255C200.19 43.3334 200.975 43.9814 201.191 44.8561C201.229 45.0123 201.25 45.1757 201.25 45.344V48.5186C201.25 48.8004 201.192 49.0687 201.089 49.3122C201.192 49.5557 201.25 49.824 201.25 50.1059V51.3766C201.25 51.4474 201.246 51.5177 201.239 51.5873C201.181 52.1378 200.9 52.6438 200.457 52.9811ZM199.675 50.1059C199.675 49.8721 199.487 49.6826 199.255 49.6826H199.15H193.27C193.163 49.6826 193.066 49.7225 192.992 49.7884C192.905 49.866 192.85 49.9794 192.85 50.1059V50.3175C192.85 50.4147 192.882 50.5043 192.937 50.5757C192.954 50.5972 192.972 50.617 192.992 50.635C193 50.6423 193.009 50.6494 193.018 50.6561C193.025 50.6615 193.032 50.6666 193.04 50.6716C193.097 50.7096 193.164 50.7338 193.237 50.7395C193.248 50.7403 193.259 50.7408 193.27 50.7408H194.092C194.14 50.7408 194.184 50.748 194.225 50.7611C194.439 50.8302 194.552 51.0631 194.5 51.2699C194.479 51.3578 194.427 51.441 194.341 51.5048L193.486 52.1397C193.481 52.1437 193.475 52.1475 193.47 52.1512C193.41 52.1913 193.341 52.2153 193.27 52.221C193.259 52.2218 193.248 52.2223 193.237 52.2223H190.75C190.518 52.2223 190.33 52.0328 190.33 51.799V49.8965C190.33 49.762 190.393 49.6355 190.501 49.5557L192.214 48.2836C192.286 48.23 192.373 48.2011 192.463 48.2011H195.002C195.205 48.2011 195.37 48.3669 195.37 48.5715C195.37 48.776 195.535 48.9418 195.737 48.9418H199.15H199.255C199.487 48.9418 199.675 48.7523 199.675 48.5186V45.344C199.675 45.1102 199.487 44.9207 199.255 44.9207H199.161H191.652H191.311C191.219 44.9207 191.131 44.9507 191.058 45.0062L186.733 48.2969L186.451 48.5122L186.192 48.709C186.087 48.789 186.025 48.9141 186.025 49.0468V55.0794C186.025 55.3132 186.213 55.5027 186.445 55.5027H186.547H194.389C194.481 55.5027 194.569 55.4727 194.642 55.4172L199.282 51.886L199.508 51.7144C199.613 51.6344 199.675 51.5093 199.675 51.3766V50.1059Z" fill="#09090B"></path><path fill-rule="evenodd" clip-rule="evenodd" d="M186.55 55.3952C186.55 55.4311 186.549 55.467 186.547 55.5027C186.516 56.0811 186.239 56.6193 185.786 56.9776C185.771 56.989 185.757 57.0003 185.742 57.0114L185.636 57.09L181.332 60.3002C180.015 61.2822 178.15 60.3349 178.15 58.6841V55.9022V53.5979V52.8572V49.3651C178.15 49.182 178.174 49.0046 178.22 48.836C178.431 48.0551 179.097 47.4632 179.913 47.368C179.934 47.2859 179.961 47.2047 179.993 47.1249C180.122 46.8047 180.341 46.5075 180.663 46.2674L183.368 44.2501C183.65 44.0397 183.958 43.9178 184.266 43.8725C184.922 43.7763 185.584 44.025 186.025 44.5032C186.346 44.851 186.55 45.3201 186.55 45.8663V46.4475V47.8836C186.55 48.1031 186.515 48.3144 186.451 48.5122C186.438 48.5501 186.425 48.5875 186.41 48.6244C186.5 48.8536 186.55 49.1035 186.55 49.3651V55.3952ZM184.975 55.3952C184.975 55.5294 184.912 55.6556 184.805 55.7354L184.614 55.878L180.395 59.0243C180.118 59.231 179.725 59.0316 179.725 58.6841V56.6512V49.3651C179.725 49.1313 179.913 48.9418 180.145 48.9418H180.225H184.453H184.555C184.787 48.9418 184.975 49.1313 184.975 49.3651V55.3952ZM184.975 45.8663C184.975 45.5187 184.582 45.3193 184.305 45.526L181.6 47.5434C181.441 47.6623 181.4 47.848 181.448 48.0064C181.498 48.1714 181.643 48.3069 181.85 48.3069H184.555C184.567 48.3069 184.579 48.3064 184.591 48.3054C184.806 48.2872 184.975 48.1053 184.975 47.8836V47.6875V47.6662V45.8663Z" fill="#09090B"></path><path fill-rule="evenodd" clip-rule="evenodd" d="M179.457 56.8964L174.591 60.5993C174.245 60.8628 173.823 61.0053 173.389 61.0053H165.445C165.137 61.0053 164.845 60.9349 164.584 60.8091C164.548 60.7916 164.512 60.7729 164.477 60.7532C163.864 60.4099 163.45 59.7511 163.45 58.9948V58.5715V55.8201C163.45 55.5383 163.508 55.27 163.611 55.0265C163.508 54.783 163.45 54.5147 163.45 54.2328V52.9621C163.45 52.8913 163.454 52.821 163.461 52.7514C163.518 52.2009 163.8 51.6949 164.243 51.3576L164.497 51.1641L169.109 47.6548C169.319 47.4947 169.557 47.3793 169.809 47.3133C169.972 47.2707 170.14 47.2487 170.311 47.2487H171.839H178.255C179.25 47.2487 180.074 47.9823 180.225 48.9418C180.242 49.0452 180.25 49.1513 180.25 49.2593V52.4339C180.25 52.7158 180.192 52.9841 180.089 53.2276C180.192 53.471 180.25 53.7393 180.25 54.0212V55.2919C180.25 55.7995 180.06 56.2835 179.725 56.6512C179.644 56.7402 179.554 56.8223 179.457 56.8964ZM178.675 54.0212C178.675 53.7874 178.487 53.5979 178.255 53.5979H178.15H170.608C170.309 53.5979 170.138 53.3148 170.2 53.0688C170.221 52.9809 170.273 52.8977 170.359 52.8339L171.214 52.1989C171.219 52.195 171.225 52.1912 171.23 52.1875C171.299 52.1412 171.38 52.1164 171.463 52.1164L174.002 52.1164C174.205 52.1164 174.37 52.2823 174.37 52.4868C174.37 52.6914 174.535 52.8572 174.737 52.8572H178.15H178.255C178.487 52.8572 178.675 52.6677 178.675 52.4339V49.2593C178.675 49.0255 178.487 48.836 178.255 48.836H178.22H170.803H170.311C170.219 48.836 170.131 48.866 170.058 48.9215L165.192 52.6243C165.087 52.7043 165.025 52.8294 165.025 52.9621V54.2328C165.025 54.4666 165.213 54.6561 165.445 54.6561H165.55H173.092C173.391 54.6561 173.562 54.9392 173.5 55.1852C173.479 55.2732 173.427 55.3563 173.341 55.4202L172.486 56.0551C172.481 56.059 172.475 56.0628 172.47 56.0665C172.401 56.1128 172.32 56.1376 172.237 56.1376H169.697C169.495 56.1376 169.33 55.9718 169.33 55.7672C169.33 55.5627 169.165 55.3969 168.962 55.3969H165.55H165.445C165.213 55.3969 165.025 55.5864 165.025 55.8201V58.9948C165.025 59.1255 165.084 59.2424 165.176 59.3201C165.249 59.3812 165.343 59.418 165.445 59.418H173.389C173.481 59.418 173.569 59.388 173.642 59.3325L178.15 55.9022L178.508 55.6297C178.613 55.5497 178.675 55.4246 178.675 55.2919V54.0212Z" fill="#09090B"></path><path fill-rule="evenodd" clip-rule="evenodd" d="M156.749 58.5715C156.635 58.5715 156.539 58.5303 156.469 58.4657C156.398 58.4018 156.352 58.3151 156.335 58.2226C156.308 58.0757 156.356 57.9143 156.5 57.8073L156.776 57.602C156.849 57.5485 156.936 57.5196 157.025 57.5196H159.25C159.482 57.5196 159.67 57.3301 159.67 57.0963V56.4551C159.67 56.2213 159.482 56.0318 159.25 56.0318H156.763C156.674 56.0318 156.586 56.0609 156.514 56.1148L154.8 57.3927C154.693 57.4725 154.63 57.5988 154.63 57.733V59.6297C154.63 59.8634 154.818 60.053 155.05 60.053H157.535C157.626 60.053 157.714 60.0232 157.787 59.9683L158.515 59.418L158.567 59.3833C158.636 59.3369 158.717 59.3122 158.8 59.3122H162.748C163.148 59.3122 163.322 59.8228 163.005 60.07L158.944 63.2446C158.87 63.3021 158.779 63.3334 158.686 63.3334H150.825H150.745C150.513 63.3334 150.325 63.1439 150.325 62.9101V56.8775C150.325 56.7447 150.387 56.6197 150.492 56.5397L150.85 56.2672L151.033 56.1275L155.358 52.8369C155.431 52.7814 155.519 52.7514 155.611 52.7514H155.952H163.461H163.555C163.787 52.7514 163.975 52.9409 163.975 53.1746V58.1482C163.975 58.382 163.787 58.5715 163.555 58.5715H163.45H156.749ZM164.747 59.7606C164.911 59.6369 165.056 59.4882 165.176 59.3201C165.411 58.9901 165.55 58.5855 165.55 58.1482V55.3969V54.6561V53.1746C165.55 53.0064 165.529 52.843 165.491 52.6868C165.275 51.8121 164.49 51.1641 163.555 51.1641H157.125H155.611C155.44 51.1641 155.272 51.186 155.109 51.2287C154.857 51.2946 154.619 51.4101 154.409 51.5701L150.85 54.2782L149.543 55.273C149.043 55.6529 148.75 56.2469 148.75 56.8775V62.9101C148.75 63.719 149.224 64.4163 149.907 64.7354C150.162 64.8543 150.446 64.9207 150.745 64.9207H158.686C159.129 64.9207 159.559 64.7723 159.909 64.4989L163.971 61.3243C164.012 61.292 164.051 61.2588 164.089 61.2248C164.167 61.155 164.237 61.0817 164.3 61.0053C164.367 60.9244 164.426 60.8401 164.477 60.7532C164.66 60.4433 164.746 60.1006 164.747 59.7606Z" fill="#09090B"></path><path fill-rule="evenodd" clip-rule="evenodd" d="M134.843 59.0825L139.709 55.3796C140.055 55.1161 140.477 54.9736 140.911 54.9736L143.602 54.9736L147.653 51.891C148.549 51.2087 149.711 51.4316 150.358 52.1693C150.66 52.5129 150.85 52.9681 150.85 53.4956V54.2782V56.2672L150.85 63.0168C150.85 63.1236 150.842 63.2295 150.825 63.3334C150.745 63.8425 150.472 64.3057 150.057 64.6213L149.907 64.7354L149.664 64.9207L145.191 68.3241C144.845 68.5876 144.423 68.7302 143.989 68.7302H136.045C134.943 68.7302 134.05 67.83 134.05 66.7196L134.05 60.687C134.05 60.1964 134.228 59.7279 134.542 59.3652C134.631 59.2617 134.732 59.1668 134.843 59.0825Z" fill="#09090B"></path><path fill-rule="evenodd" clip-rule="evenodd" d="M206.757 40.8118L205.804 41.5375L201.891 44.5146C201.681 44.6747 201.443 44.7901 201.191 44.8561C201.028 44.8987 200.86 44.9207 200.689 44.9207H199.161H192.745C191.81 44.9207 191.025 44.2726 190.809 43.398C190.77 43.2418 190.75 43.0783 190.75 42.9101V36.8775C190.75 36.3698 190.94 35.8858 191.275 35.5182C191.356 35.4292 191.445 35.347 191.543 35.273L196.409 31.5701C196.755 31.3066 197.177 31.1641 197.611 31.1641H205.555C206.657 31.1641 207.55 32.0642 207.55 33.1746V39.2073C207.55 39.2781 207.546 39.3484 207.539 39.418C207.537 39.437 207.535 39.4559 207.532 39.4748C207.462 40.0032 207.185 40.4861 206.757 40.8118ZM200.095 37.6191H199.143L198.205 38.3153V38.4657H199.157L200.095 37.7694V37.6191ZM205.808 39.545C205.913 39.4651 205.975 39.34 205.975 39.2073V33.1746C205.975 32.9409 205.787 32.7514 205.555 32.7514H197.611C197.519 32.7514 197.431 32.7814 197.358 32.8368L192.85 36.2672L192.492 36.5397C192.387 36.6197 192.325 36.7447 192.325 36.8775V42.9101C192.325 43.1439 192.513 43.3334 192.745 43.3334H192.825H200.197H200.689C200.781 43.3334 200.869 43.3034 200.942 43.2479L205.487 39.7891L205.808 39.545ZM201.499 38.6983C201.607 38.6186 201.67 38.4921 201.67 38.3576V36.4551C201.67 36.2213 201.482 36.0318 201.25 36.0318H198.763C198.673 36.0318 198.586 36.0607 198.514 36.1143L196.801 37.3864C196.693 37.4662 196.63 37.5927 196.63 37.7272V39.6297C196.63 39.8634 196.818 40.053 197.05 40.053H199.537C199.627 40.053 199.714 40.024 199.786 39.9704L201.499 38.6983Z" fill="#09090B"></path><path fill-rule="evenodd" clip-rule="evenodd" d="M192.85 43.0142C192.85 43.122 192.841 43.2287 192.825 43.3334C192.743 43.8481 192.464 44.3153 192.042 44.6304L191.652 44.9207L187.632 47.9193C187.35 48.1297 187.042 48.2515 186.733 48.2969C186.078 48.393 185.416 48.1444 184.975 47.6662C184.654 47.3184 184.45 46.8493 184.45 46.3031V45.7219V43.7329V36.7742C184.45 36.7383 184.451 36.7024 184.453 36.6667C184.484 36.0883 184.761 35.5501 185.214 35.1918C185.229 35.1804 185.243 35.1691 185.258 35.158L185.358 35.0835L189.668 31.8692C190.985 30.8871 192.85 31.8345 192.85 33.4853V36.2672V43.0142ZM191.275 43.0142C191.275 43.1484 191.212 43.2746 191.105 43.3545L186.695 46.6433C186.418 46.8501 186.025 46.6506 186.025 46.3031V44.5032V44.4819V36.7742C186.025 36.64 186.088 36.5138 186.195 36.434L186.386 36.2914L190.605 33.1451C190.882 32.9384 191.275 33.1378 191.275 33.4853V35.5182V43.0142Z" fill="#09090B"></path><path fill-rule="evenodd" clip-rule="evenodd" d="M185.757 44.7271L184.45 45.7219L181.448 48.0064L180.891 48.43C180.545 48.6935 180.123 48.836 179.689 48.836H178.22H171.745C170.81 48.836 170.025 48.188 169.809 47.3133C169.77 47.1571 169.75 46.9937 169.75 46.8254V46.4022V44.6032V40.7928C169.75 40.722 169.754 40.6517 169.761 40.5821C169.818 40.0316 170.1 39.5256 170.543 39.1883L170.604 39.1414L170.797 38.9948L175.409 35.4855C175.755 35.222 176.177 35.0794 176.611 35.0794H184.555C184.562 35.0794 184.569 35.0794 184.575 35.0795C184.799 35.0818 185.014 35.1211 185.214 35.1918C185.741 35.3775 186.166 35.7791 186.386 36.2914C186.492 36.5362 186.55 36.8062 186.55 37.09V43.1226C186.55 43.6303 186.36 44.1143 186.025 44.4819C185.944 44.5709 185.854 44.6531 185.757 44.7271ZM179.095 41.5344H178.143L177.205 42.2307V42.381H178.157L179.095 41.6847V41.5344ZM184.808 43.4604C184.913 43.3804 184.975 43.2553 184.975 43.1226V37.09C184.975 36.8562 184.787 36.6667 184.555 36.6667H184.453H176.611C176.519 36.6667 176.431 36.6967 176.358 36.7522L171.717 40.2833L171.492 40.455C171.387 40.535 171.325 40.6601 171.325 40.7928V46.8254C171.325 47.0592 171.513 47.2487 171.745 47.2487H171.839H179.689C179.781 47.2487 179.869 47.2187 179.942 47.1632L179.993 47.1249L184.266 43.8725L184.45 43.7329L184.808 43.4604ZM180.499 42.6137C180.607 42.5339 180.67 42.4074 180.67 42.2729V40.3704C180.67 40.1366 180.482 39.9471 180.25 39.9471H177.763C177.673 39.9471 177.586 39.976 177.514 40.0296L175.801 41.3017C175.693 41.3815 175.63 41.508 175.63 41.6425V43.545C175.63 43.7788 175.818 43.9683 176.05 43.9683H178.537C178.627 43.9683 178.714 43.9394 178.786 43.8858L180.499 42.6137Z" fill="#09090B"></path><path fill-rule="evenodd" clip-rule="evenodd" d="M171.057 48.6425L170.803 48.836L166.191 52.3453C165.981 52.5054 165.743 52.6208 165.491 52.6868C165.328 52.7294 165.16 52.7514 164.989 52.7514H163.461H157.045C156.11 52.7514 155.325 52.1033 155.109 51.2287C155.07 51.0725 155.05 50.909 155.05 50.7408V44.7082C155.05 44.6013 155.058 44.4955 155.075 44.3916C155.112 44.1581 155.189 43.9343 155.302 43.73C155.377 43.5934 155.469 43.4655 155.575 43.3492C155.656 43.2601 155.745 43.1778 155.843 43.1036L160.709 39.4008C161.055 39.1373 161.477 38.9948 161.911 38.9948H169.855C170.12 38.9948 170.373 39.0468 170.604 39.1414C171.114 39.3499 171.519 39.7648 171.717 40.2833C171.803 40.5074 171.85 40.7509 171.85 41.0053V44.1799C171.85 44.6864 171.664 45.1492 171.357 45.5027C171.664 45.8562 171.85 46.319 171.85 46.8254V47.0379C171.85 47.1087 171.846 47.1791 171.839 47.2487C171.781 47.7992 171.5 48.3052 171.057 48.6425ZM164.597 45.4498H163.443L162.505 46.146V46.2963H163.457L164.597 45.4498ZM166.108 46.4022C166.018 46.4022 165.931 46.4311 165.859 46.4847L164.086 47.8011C164.014 47.8547 163.927 47.8836 163.837 47.8836H161.35C161.118 47.8836 160.93 47.6941 160.93 47.4604V45.5578C160.93 45.4234 160.993 45.2969 161.101 45.2171L162.814 43.945C162.886 43.8914 162.973 43.8625 163.063 43.8625H165.602C165.805 43.8625 165.97 44.0283 165.97 44.2328C165.97 44.4374 166.135 44.6032 166.337 44.6032H169.75H169.855C170.087 44.6032 170.275 44.4137 170.275 44.1799V41.0053C170.275 40.7716 170.087 40.5821 169.855 40.5821H169.761H161.911C161.819 40.5821 161.731 40.6121 161.658 40.6675L157.047 44.1761L156.792 44.3704C156.687 44.4504 156.625 44.5754 156.625 44.7082V50.7408C156.625 50.9746 156.813 51.1641 157.045 51.1641H157.125H164.497H164.989C165.081 51.1641 165.169 51.1341 165.242 51.0786L170.108 47.3757C170.213 47.2957 170.275 47.1707 170.275 47.0379V46.8254C170.275 46.5917 170.087 46.4022 169.855 46.4022H169.75H166.108Z" fill="#09090B"></path><path fill-rule="evenodd" clip-rule="evenodd" d="M157.15 50.8449C157.15 50.9527 157.141 51.0593 157.125 51.1641C157.043 51.6788 156.764 52.146 156.342 52.4611L155.952 52.7514L151.932 55.75C151.65 55.9604 151.342 56.0822 151.033 56.1275C149.901 56.2937 148.75 55.4309 148.75 54.1338V44.8149C148.75 44.049 149.175 43.3832 149.8 43.0437C150.017 42.926 150.258 42.8475 150.513 42.8177C150.618 42.4061 150.861 42.017 151.263 41.7172L153.968 39.6998C155.285 38.7178 157.15 39.6652 157.15 41.316V43.3334C157.15 43.595 157.1 43.8449 157.01 44.0741C157.023 44.1077 157.036 44.1417 157.047 44.1761C157.114 44.3768 157.15 44.5916 157.15 44.8149V50.8449ZM155.575 50.8449C155.575 50.9791 155.512 51.1053 155.405 51.1851L150.995 54.474C150.718 54.6808 150.325 54.4813 150.325 54.1338V44.8149C150.325 44.5811 150.513 44.3916 150.745 44.3916H150.806H155.075H155.155C155.387 44.3916 155.575 44.5811 155.575 44.8149V50.8449ZM155.575 41.316C155.575 40.9685 155.182 40.769 154.905 40.9758L152.2 42.9931C151.875 43.2359 152.045 43.7567 152.45 43.7567H155.155C155.207 43.7567 155.256 43.7472 155.302 43.73C155.457 43.6717 155.568 43.524 155.575 43.3492C155.575 43.3439 155.575 43.3387 155.575 43.3334V41.316Z" fill="#09090B"></path><path fill-rule="evenodd" clip-rule="evenodd" d="M150.057 52.452L145.191 56.1548C144.845 56.4183 144.423 56.5609 143.989 56.5609H141.298L137.247 59.6434C136.35 60.3258 135.189 60.1029 134.542 59.3652C134.24 59.0216 134.05 58.5664 134.05 58.0389V48.5177C134.05 47.8872 134.343 47.2931 134.843 46.9132L139.709 43.2103C140.055 42.9468 140.477 42.8043 140.911 42.8043H148.855C148.866 42.8043 148.877 42.8044 148.888 42.8045C149.217 42.8099 149.528 42.8958 149.8 43.0437C150.307 43.3188 150.682 43.8083 150.806 44.3916C150.835 44.528 150.85 44.6697 150.85 44.8149V50.8475C150.85 51.3381 150.672 51.8065 150.358 52.1693C150.269 52.2728 150.168 52.3677 150.057 52.452Z" fill="#09090B"></path><path d="M134.05 60.687C134.05 60.1964 134.228 59.7279 134.542 59.3652C134.24 59.0216 134.05 58.5664 134.05 58.0389L134.05 60.687Z" fill="#09090B"></path><path d="M150.513 42.8177C150.618 42.4061 150.861 42.017 151.263 41.7172L149.684 42.811L150.513 42.8177Z" fill="#09090B"></path><path d="M149.8 43.0437C150.017 42.926 150.258 42.8475 150.513 42.8177L149.684 42.811L148.888 42.8045C149.217 42.8099 149.528 42.8958 149.8 43.0437Z" fill="#09090B"></path><path d="M155.302 43.73C155.377 43.5934 155.469 43.4655 155.575 43.3492C155.575 43.3439 155.575 43.3387 155.575 43.3334V41.316C155.575 40.9685 155.182 40.769 154.905 40.9758L152.2 42.9931C151.875 43.2359 152.045 43.7567 152.45 43.7567H155.155C155.207 43.7567 155.256 43.7472 155.302 43.73Z" fill="#09090B"></path><path d="M154.409 51.5701C154.619 51.4101 154.857 51.2946 155.109 51.2287C155.07 51.0725 155.05 50.909 155.05 50.7408V44.7082C155.05 44.6013 155.058 44.4955 155.075 44.3916H150.806C150.835 44.528 150.85 44.6697 150.85 44.8149V50.8475C150.85 51.3381 150.672 51.8065 150.358 52.1693C150.66 52.5129 150.85 52.9681 150.85 53.4956V54.2782L154.409 51.5701Z" fill="#09090B"></path><path d="M164.497 51.1641L169.109 47.6548C169.319 47.4947 169.557 47.3793 169.809 47.3133C169.77 47.1571 169.75 46.9937 169.75 46.8254V46.4022H166.108C166.018 46.4022 165.931 46.4311 165.859 46.4847L164.086 47.8011C164.014 47.8547 163.927 47.8836 163.837 47.8836H161.35C161.118 47.8836 160.93 47.6941 160.93 47.4604V45.5578C160.93 45.4234 160.993 45.2969 161.101 45.2171L162.814 43.945C162.886 43.8914 162.973 43.8625 163.063 43.8625H165.602C165.805 43.8625 165.97 44.0283 165.97 44.2328C165.97 44.4374 166.135 44.6032 166.337 44.6032H169.75V40.7928C169.75 40.722 169.754 40.6517 169.761 40.5821H161.911C161.819 40.5821 161.731 40.6121 161.658 40.6675L157.047 44.1761C157.114 44.3768 157.15 44.5916 157.15 44.8149V50.8449C157.15 50.9527 157.141 51.0593 157.125 51.1641H163.555H164.497Z" fill="#09090B"></path><path d="M163.443 45.4498H164.597L163.457 46.2963H162.505V46.146L163.443 45.4498Z" fill="#09090B"></path><path fill-rule="evenodd" clip-rule="evenodd" d="M179.993 47.1249C180.122 46.8047 180.341 46.5075 180.663 46.2674L183.368 44.2501C183.65 44.0397 183.958 43.9178 184.266 43.8725L184.45 43.7329V36.7742C184.45 36.7383 184.451 36.7024 184.453 36.6667H176.611C176.519 36.6667 176.431 36.6967 176.358 36.7522L171.717 40.2833C171.803 40.5074 171.85 40.7509 171.85 41.0053V44.1799C171.85 44.6864 171.664 45.1492 171.357 45.5027C171.664 45.8562 171.85 46.319 171.85 46.8254V47.0379C171.85 47.1087 171.846 47.1791 171.839 47.2487H178.255H179.689C179.781 47.2487 179.869 47.2187 179.942 47.1632L179.993 47.1249ZM180.499 42.6137C180.607 42.5339 180.67 42.4074 180.67 42.2729V40.3704C180.67 40.1366 180.482 39.9471 180.25 39.9471H177.763C177.673 39.9471 177.586 39.976 177.514 40.0296L175.801 41.3017C175.693 41.3815 175.63 41.508 175.63 41.6425V43.545C175.63 43.7788 175.818 43.9683 176.05 43.9683H178.537C178.627 43.9683 178.714 43.9394 178.786 43.8858L180.499 42.6137Z" fill="#09090B"></path><path d="M178.143 41.5344H179.095V41.6847L178.157 42.381H177.205V42.2307L178.143 41.5344Z" fill="#09090B"></path><path d="M186.55 46.4475L190.109 43.7394C190.319 43.5794 190.557 43.4639 190.809 43.398C190.77 43.2418 190.75 43.0783 190.75 42.9101V36.8775C190.75 36.3698 190.94 35.8858 191.275 35.5182V33.4853C191.275 33.1378 190.882 32.9384 190.605 33.1451L186.386 36.2914C186.492 36.5362 186.55 36.8062 186.55 37.09V43.1226C186.55 43.6303 186.36 44.1143 186.025 44.4819V44.5032C186.346 44.851 186.55 45.3201 186.55 45.8663V46.4475Z" fill="#09090B"></path><path fill-rule="evenodd" clip-rule="evenodd" d="M204.33 40.1882C204.69 39.9145 205.093 39.7903 205.487 39.7891L205.808 39.545C205.913 39.4651 205.975 39.34 205.975 39.2073V33.1746C205.975 32.9409 205.787 32.7514 205.555 32.7514H197.611C197.519 32.7514 197.431 32.7814 197.358 32.8368L192.85 36.2672V43.0142C192.85 43.122 192.841 43.2287 192.825 43.3334H199.255H200.197L204.33 40.1882ZM201.499 38.6983C201.607 38.6186 201.67 38.4921 201.67 38.3576V36.4551C201.67 36.2213 201.482 36.0318 201.25 36.0318H198.763C198.673 36.0318 198.586 36.0607 198.514 36.1143L196.801 37.3864C196.693 37.4662 196.63 37.5927 196.63 37.7272V39.6297C196.63 39.8634 196.818 40.053 197.05 40.053H199.537C199.627 40.053 199.714 40.024 199.786 39.9704L201.499 38.6983Z" fill="#09090B"></path><path d="M199.143 37.6191H200.095V37.7694L199.157 38.4657H198.205V38.3153L199.143 37.6191Z" fill="#09090B"></path><path d="M209.65 44.2858C209.882 44.2858 210.07 44.4753 210.07 44.709V50.1017C210.07 50.4513 210.467 50.6502 210.743 50.4394L214.208 47.799C214.313 47.719 214.375 47.594 214.375 47.4614V41.4286C214.375 41.1948 214.187 41.0053 213.955 41.0053H208.003C207.913 41.0053 207.826 41.0342 207.754 41.0878L206.457 42.0506C206.214 42.2314 205.87 42.0562 205.87 41.7515C205.87 41.6692 205.845 41.5964 205.804 41.5375L201.891 44.5146C201.681 44.6747 201.443 44.7901 201.191 44.8561C201.229 45.0123 201.25 45.1757 201.25 45.344V48.5186C201.25 48.8004 201.192 49.0687 201.089 49.3122C201.192 49.5557 201.25 49.824 201.25 50.1059V51.3766C201.25 51.4474 201.246 51.5177 201.239 51.5873H204.61C204.842 51.5873 205.03 51.3978 205.03 51.1641V45.9869C205.03 45.8527 205.093 45.7265 205.2 45.6467L206.914 44.3688C206.986 44.3149 207.074 44.2858 207.163 44.2858H209.65Z" fill="#09090B"></path><path d="M199.15 45.1315C199.15 45.0607 199.154 44.9903 199.161 44.9207H192.745H191.652L187.632 47.9193C187.35 48.1297 187.042 48.2515 186.733 48.2969L186.451 48.5122C186.438 48.5501 186.425 48.5875 186.41 48.6244C186.5 48.8536 186.55 49.1035 186.55 49.3651V55.3952C186.55 55.4311 186.549 55.467 186.547 55.5027H194.389C194.481 55.5027 194.569 55.4727 194.642 55.4172L199.282 51.886C199.197 51.662 199.15 51.4185 199.15 51.1641V49.6826H193.27C193.163 49.6826 193.066 49.7225 192.992 49.7884C192.905 49.866 192.85 49.9794 192.85 50.1059V50.3175C192.85 50.4147 192.882 50.5043 192.937 50.5757C192.954 50.5972 192.972 50.617 192.992 50.635C193 50.6423 193.009 50.6494 193.018 50.6561C193.025 50.6615 193.032 50.6666 193.04 50.6716C193.097 50.7096 193.164 50.7338 193.237 50.7395C193.248 50.7403 193.259 50.7408 193.27 50.7408H194.092C194.14 50.7408 194.184 50.748 194.225 50.7611C194.439 50.8302 194.552 51.0631 194.5 51.2699C194.479 51.3578 194.427 51.441 194.341 51.5048L193.486 52.1397C193.481 52.1437 193.475 52.1475 193.47 52.1512C193.41 52.1913 193.341 52.2153 193.27 52.221C193.259 52.2218 193.248 52.2223 193.237 52.2223H190.75C190.518 52.2223 190.33 52.0328 190.33 51.799V49.8965C190.33 49.762 190.393 49.6355 190.501 49.5557L192.214 48.2836C192.286 48.23 192.373 48.2011 192.463 48.2011H195.002C195.205 48.2011 195.37 48.3669 195.37 48.5715C195.37 48.776 195.535 48.9418 195.737 48.9418H199.15V45.1315Z" fill="#09090B"></path><path d="M184.591 48.3054C184.68 48.0785 184.81 47.8689 184.975 47.6875V47.6662C184.654 47.3184 184.45 46.8493 184.45 46.3031V45.7219L181.448 48.0064C181.498 48.1714 181.643 48.3069 181.85 48.3069H184.555C184.567 48.3069 184.579 48.3064 184.591 48.3054Z" fill="#09090B"></path><path d="M184.614 55.878C184.508 55.6332 184.45 55.3632 184.45 55.0794V49.0468C184.45 49.0117 184.451 48.9767 184.453 48.9418H180.225C180.242 49.0452 180.25 49.1513 180.25 49.2593V52.4339C180.25 52.7158 180.192 52.9841 180.089 53.2276C180.192 53.471 180.25 53.7393 180.25 54.0212V55.2919C180.25 55.7995 180.06 56.2835 179.725 56.6512V58.6841C179.725 59.0316 180.118 59.231 180.395 59.0243L184.614 55.878Z" fill="#09090B"></path><path d="M178.15 49.3651C178.15 49.182 178.174 49.0046 178.22 48.836H171.745H170.803L166.191 52.3453C165.981 52.5054 165.743 52.6208 165.491 52.6868C165.529 52.843 165.55 53.0064 165.55 53.1746V54.6561H173.092C173.391 54.6561 173.562 54.9392 173.5 55.1852C173.479 55.2732 173.427 55.3563 173.341 55.4202L172.486 56.0551C172.481 56.059 172.475 56.0628 172.47 56.0665C172.401 56.1128 172.32 56.1376 172.237 56.1376H169.697C169.495 56.1376 169.33 55.9718 169.33 55.7672C169.33 55.5627 169.165 55.3969 168.962 55.3969H165.55V58.1482C165.55 58.5855 165.411 58.9901 165.176 59.3201C165.249 59.3812 165.343 59.418 165.445 59.418H173.389C173.481 59.418 173.569 59.388 173.642 59.3325L178.15 55.9022V53.5979H170.608C170.309 53.5979 170.138 53.3148 170.2 53.0688C170.221 52.9809 170.273 52.8977 170.359 52.8339L171.214 52.1989C171.219 52.195 171.225 52.1912 171.23 52.1875C171.299 52.1412 171.38 52.1164 171.463 52.1164L174.002 52.1164C174.205 52.1164 174.37 52.2823 174.37 52.4868C174.37 52.6914 174.535 52.8572 174.737 52.8572H178.15V49.3651Z" fill="#09090B"></path><path d="M163.45 58.5715V55.8201C163.45 55.5383 163.508 55.27 163.611 55.0265C163.508 54.783 163.45 54.5147 163.45 54.2328V52.9621C163.45 52.8913 163.454 52.821 163.461 52.7514H157.045H155.952L151.932 55.75C151.65 55.9604 151.342 56.0822 151.033 56.1275L150.85 56.2672L150.85 63.0168C150.85 63.1236 150.842 63.2295 150.825 63.3334H158.686C158.779 63.3334 158.87 63.3021 158.944 63.2446L163.005 60.07C163.322 59.8228 163.148 59.3122 162.748 59.3122H158.8C158.717 59.3122 158.636 59.3369 158.567 59.3833L158.515 59.418L157.787 59.9683C157.714 60.0232 157.626 60.053 157.535 60.053H155.05C154.818 60.053 154.63 59.8634 154.63 59.6297V57.733C154.63 57.5988 154.693 57.4725 154.8 57.3927L156.514 56.1148C156.586 56.0609 156.674 56.0318 156.763 56.0318H159.25C159.482 56.0318 159.67 56.2213 159.67 56.4551V57.0963C159.67 57.3301 159.482 57.5196 159.25 57.5196H157.025C156.936 57.5196 156.849 57.5485 156.776 57.602L156.5 57.8073C156.356 57.9143 156.308 58.0757 156.335 58.2226C156.352 58.3151 156.398 58.4018 156.469 58.4657C156.539 58.5303 156.635 58.5715 156.749 58.5715H163.45Z" fill="#09090B"></path><path d="M169.855 38.9948C170.12 38.9948 170.373 39.0468 170.604 39.1414L170.797 38.9948H169.855Z" fill="#09090B"></path><path d="M185.214 35.1918C185.229 35.1804 185.243 35.1691 185.258 35.158L185.358 35.0835L184.575 35.0795C184.799 35.0818 185.014 35.1211 185.214 35.1918Z" fill="#09090B"></path><path d="M207.55 39.418V39.2073C207.55 39.2781 207.546 39.3484 207.539 39.418H207.55Z" fill="#09090B"></path><path d="M207.532 39.4748C207.538 39.4734 207.544 39.4719 207.55 39.4706V39.418H207.539C207.537 39.437 207.535 39.4559 207.532 39.4748Z" fill="#09090B"></path><path d="M207.55 39.4706C207.698 39.4359 207.85 39.418 208.003 39.418H207.55V39.4706Z" fill="#09090B"></path><path d="M201.145 53.1746C200.88 53.1746 200.627 53.1226 200.396 53.028L200.203 53.1746H201.145Z" fill="#09090B"></path><path d="M185.786 56.9776C185.771 56.989 185.757 57.0003 185.742 57.0114L185.636 57.09H186.445C186.214 57.09 185.992 57.0504 185.786 56.9776Z" fill="#09090B"></path><path d="M164.477 60.7532C164.426 60.8401 164.367 60.9244 164.3 61.0053H164.351L164.584 60.8091C164.548 60.7916 164.512 60.7729 164.477 60.7532Z" fill="#09090B"></path><path d="M165.445 61.0053C165.137 61.0053 164.845 60.9349 164.584 60.8091L164.351 61.0053H165.445Z" fill="#09090B"></path><path d="M164.3 61.0053C164.237 61.0817 164.167 61.155 164.089 61.2248L164.351 61.0053H164.3Z" fill="#09090B"></path><path d="M150.745 64.9207C150.446 64.9207 150.162 64.8543 149.907 64.7354L149.664 64.9207H150.745Z" fill="#09090B"></path><path fill-rule="evenodd" clip-rule="evenodd" d="M214.375 47.4619C214.375 47.5946 214.313 47.7195 214.208 47.7995L210.743 50.4399C210.467 50.6507 210.07 50.4518 210.07 50.1023V46.8196V44.7096C210.07 44.4758 209.882 44.2863 209.65 44.2863H207.164C207.074 44.2863 206.986 44.3154 206.914 44.3693L205.2 45.6472C205.093 45.727 205.03 45.8533 205.03 45.9875V48.3074V51.1646C205.03 51.3984 204.842 51.5879 204.61 51.5879H201.145C200.913 51.5879 200.725 51.3984 200.725 51.1646V45.132C200.725 44.9992 200.787 44.8742 200.892 44.7942L205.279 41.4555C205.522 41.2707 205.87 41.4453 205.87 41.752V41.752C205.87 42.0568 206.214 42.2319 206.457 42.0511L207.754 41.0884C207.826 41.0348 207.913 41.0059 208.003 41.0059H209.23H213.955C214.187 41.0059 214.375 41.1954 214.375 41.4291V47.4619Z" fill="#9F75DF"></path><path d="M194.389 55.5039C194.481 55.5039 194.569 55.4739 194.642 55.4184L199.508 51.7156C199.613 51.6356 199.675 51.5105 199.675 51.3778V50.1071C199.675 49.8733 199.487 49.6838 199.255 49.6838H195.37H193.27C193.038 49.6838 192.85 49.8733 192.85 50.1071V50.3187C192.85 50.5525 193.038 50.742 193.27 50.742H194.092C194.497 50.742 194.668 51.2636 194.341 51.506L193.486 52.1409C193.414 52.1945 193.327 52.2235 193.237 52.2235H190.75C190.518 52.2235 190.33 52.034 190.33 51.8002V49.8977C190.33 49.7632 190.393 49.6367 190.501 49.5569L192.214 48.2848C192.286 48.2312 192.373 48.2023 192.463 48.2023H195.002C195.205 48.2023 195.37 48.3681 195.37 48.5727V48.5727C195.37 48.7772 195.535 48.943 195.737 48.943H199.255C199.487 48.943 199.675 48.7535 199.675 48.5198V45.3452C199.675 45.1114 199.487 44.9219 199.255 44.9219H194.53H191.311C191.219 44.9219 191.131 44.9519 191.058 45.0074L186.192 48.7102C186.087 48.7902 186.025 48.9153 186.025 49.048V55.0806C186.025 55.3144 186.213 55.5039 186.445 55.5039H191.17H194.389Z" fill="#9F75DF"></path><path fill-rule="evenodd" clip-rule="evenodd" d="M184.805 55.8049C184.912 55.7245 184.975 55.5975 184.975 55.4624V50.351V49.2865C184.975 49.0511 184.787 48.8604 184.555 48.8604H180.145C179.913 48.8604 179.725 49.0511 179.725 49.2865V55.6771V58.7731C179.725 59.123 180.118 59.3237 180.395 59.1156L184.805 55.8049ZM181.6 47.5585C181.275 47.8029 181.445 48.3271 181.85 48.3271H184.555C184.787 48.3271 184.975 48.1363 184.975 47.901V45.8702C184.975 45.5204 184.582 45.3196 184.305 45.5277L181.6 47.5585Z" fill="#9F75DF"></path><path d="M173.389 59.4179C173.481 59.4179 173.569 59.3879 173.642 59.3325L178.508 55.6296C178.613 55.5496 178.675 55.4245 178.675 55.2918V54.0211C178.675 53.7874 178.487 53.5978 178.255 53.5978H174.37H170.608C170.203 53.5978 170.032 53.0762 170.359 52.8338L171.214 52.1988C171.286 52.1452 171.373 52.1163 171.463 52.1163L174.002 52.1164C174.205 52.1164 174.37 52.2822 174.37 52.4867V52.4867C174.37 52.6913 174.535 52.8571 174.737 52.8571H178.255C178.487 52.8571 178.675 52.6676 178.675 52.4338V49.2592C178.675 49.0254 178.487 48.8359 178.255 48.8359H173.53H170.311C170.219 48.8359 170.131 48.8659 170.058 48.9214L165.192 52.6243C165.087 52.7043 165.025 52.8293 165.025 52.9621V54.2328C165.025 54.4665 165.213 54.656 165.445 54.656H169.33H173.092C173.497 54.656 173.668 55.1777 173.341 55.4201L172.486 56.055C172.414 56.1086 172.327 56.1375 172.237 56.1375H169.697C169.495 56.1375 169.33 55.9717 169.33 55.7672V55.7672C169.33 55.5626 169.165 55.3968 168.962 55.3968H165.445C165.213 55.3968 165.025 55.5863 165.025 55.8201V58.9947C165.025 59.2284 165.213 59.4179 165.445 59.4179H170.17H173.389Z" fill="#9F75DF"></path><path d="M158.686 63.334C158.779 63.334 158.87 63.3027 158.944 63.2452L163.005 60.0706C163.322 59.8234 163.148 59.3128 162.748 59.3128H158.8C158.717 59.3128 158.636 59.3375 158.567 59.3839L158.515 59.4186L157.787 59.9689C157.714 60.0238 157.626 60.0535 157.535 60.0535H155.05C154.818 60.0535 154.63 59.864 154.63 59.6303V57.7336C154.63 57.5994 154.693 57.4731 154.8 57.3933L156.514 56.1154C156.586 56.0615 156.674 56.0324 156.764 56.0324H159.25C159.482 56.0324 159.67 56.2219 159.67 56.4557V57.0969C159.67 57.3307 159.482 57.5202 159.25 57.5202H157.025C156.936 57.5202 156.849 57.5491 156.776 57.6026L156.5 57.8079C156.173 58.0502 156.343 58.5721 156.749 58.5721H159.67H163.555C163.787 58.5721 163.975 58.3826 163.975 58.1488V53.1752C163.975 52.9415 163.787 52.752 163.555 52.752H158.83H155.611C155.519 52.752 155.431 52.782 155.358 52.8374L150.492 56.5403C150.387 56.6203 150.325 56.7453 150.325 56.8781V62.9107C150.325 63.1445 150.513 63.334 150.745 63.334H155.47H158.686Z" fill="#9F75DF"></path><path fill-rule="evenodd" clip-rule="evenodd" d="M140.911 56.5585C140.819 56.5585 140.731 56.5886 140.658 56.644L135.792 60.3476C135.687 60.4276 135.625 60.5527 135.625 60.6855L135.625 66.7192C135.625 66.953 135.813 67.1426 136.045 67.1426L143.989 67.1426C144.081 67.1426 144.169 67.1126 144.242 67.0571L149.108 63.3535C149.213 63.2735 149.275 63.1484 149.275 63.0157L149.275 56.5585L149.275 53.4926C149.275 53.1431 148.879 52.9442 148.602 53.1548L144.242 56.473C144.169 56.5285 144.081 56.5585 143.989 56.5585L140.911 56.5585ZM139.93 61.5353C139.93 61.4008 139.993 61.2743 140.101 61.1945L141.814 59.9221C141.886 59.8685 141.973 59.8396 142.063 59.8396L144.55 59.8396C144.782 59.8396 144.97 60.0291 144.97 60.263L144.97 62.1658C144.97 62.3004 144.907 62.4269 144.799 62.5067L143.086 63.779C143.014 63.8326 142.927 63.8615 142.837 63.8615L140.35 63.8615C140.118 63.8615 139.93 63.672 139.93 63.4382L139.93 61.5353Z" fill="#9F75DF"></path><path fill-rule="evenodd" clip-rule="evenodd" d="M205.975 39.2078C205.975 39.3406 205.913 39.4656 205.808 39.5456L200.942 43.2485C200.869 43.304 200.781 43.334 200.689 43.334H197.47H192.745C192.513 43.334 192.325 43.1445 192.325 42.9107V36.8781C192.325 36.7453 192.387 36.6203 192.492 36.5403L197.358 32.8374C197.431 32.782 197.519 32.752 197.611 32.752H200.83H205.555C205.787 32.752 205.975 32.9415 205.975 33.1752V39.2078ZM201.67 38.3582C201.67 38.4927 201.607 38.6192 201.499 38.6989L199.786 39.971C199.714 40.0246 199.627 40.0535 199.537 40.0535H197.05C196.818 40.0535 196.63 39.864 196.63 39.6303V37.7277C196.63 37.5933 196.693 37.4668 196.801 37.387L198.514 36.1149C198.586 36.0613 198.673 36.0324 198.763 36.0324H201.25C201.482 36.0324 201.67 36.2219 201.67 36.4557V38.3582Z" fill="#2DB354"></path><path d="M191.105 43.424C191.212 43.3437 191.275 43.2166 191.275 43.0815V37.9701V36.5853V35.9462V33.4894C191.275 33.1395 190.882 32.9387 190.605 33.1468L186.876 35.9462L186.195 36.4576C186.088 36.5379 186.025 36.665 186.025 36.8001V43.2963V46.3923C186.025 46.7421 186.418 46.9429 186.695 46.7348L191.105 43.424Z" fill="#2DB354"></path><path fill-rule="evenodd" clip-rule="evenodd" d="M184.975 43.1239C184.975 43.2566 184.913 43.3817 184.808 43.4617L179.942 47.1645C179.869 47.22 179.781 47.25 179.689 47.25H176.47H171.745C171.513 47.25 171.325 47.0605 171.325 46.8267V40.7941C171.325 40.6613 171.387 40.5363 171.492 40.4563L176.358 36.7535C176.431 36.698 176.519 36.668 176.611 36.668H179.83H184.555C184.787 36.668 184.975 36.8575 184.975 37.0912V43.1239ZM180.67 42.2742C180.67 42.4087 180.607 42.5352 180.499 42.615L178.786 43.887C178.714 43.9406 178.627 43.9696 178.537 43.9696H176.05C175.818 43.9696 175.63 43.78 175.63 43.5463V41.6438C175.63 41.5093 175.693 41.3828 175.801 41.303L177.514 40.0309C177.586 39.9773 177.673 39.9484 177.763 39.9484H180.25C180.482 39.9484 180.67 40.1379 180.67 40.3717V42.2742Z" fill="#2DB354"></path><path fill-rule="evenodd" clip-rule="evenodd" d="M164.989 51.164C165.081 51.164 165.169 51.134 165.242 51.0786L170.108 47.3757C170.213 47.2957 170.275 47.1707 170.275 47.0379V46.8254C170.275 46.5916 170.087 46.4021 169.855 46.4021H166.108C166.018 46.4021 165.931 46.4311 165.859 46.4847L164.086 47.8011C164.014 47.8547 163.927 47.8836 163.837 47.8836H161.35C161.118 47.8836 160.93 47.6941 160.93 47.4603V45.5578C160.93 45.4233 160.993 45.2968 161.101 45.2171L162.814 43.945C162.886 43.8914 162.973 43.8625 163.063 43.8625H165.602C165.805 43.8625 165.97 44.0283 165.97 44.2328V44.2328C165.97 44.4374 166.135 44.6032 166.337 44.6032H169.855C170.087 44.6032 170.275 44.4137 170.275 44.1799V41.0053C170.275 40.7715 170.087 40.582 169.855 40.582H165.13H161.911C161.819 40.582 161.731 40.612 161.658 40.6675L156.792 44.3704C156.687 44.4504 156.625 44.5754 156.625 44.7082V50.7408C156.625 50.9745 156.813 51.164 157.045 51.164H161.77H164.989Z" fill="#2DB354"></path><path fill-rule="evenodd" clip-rule="evenodd" d="M155.405 51.2541C155.512 51.1738 155.575 51.0467 155.575 50.9116V45.8002V44.8415C155.575 44.6062 155.387 44.4154 155.155 44.4154H150.745C150.513 44.4154 150.325 44.6062 150.325 44.8415V51.1264V54.2223C150.325 54.5722 150.718 54.773 150.995 54.5648L155.405 51.2541ZM152.2 43.0077C151.875 43.2521 152.045 43.7763 152.45 43.7763H155.155C155.387 43.7763 155.575 43.5855 155.575 43.3502V41.3194C155.575 40.9696 155.182 40.7688 154.905 40.9769L152.2 43.0077Z" fill="#2DB354"></path><path fill-rule="evenodd" clip-rule="evenodd" d="M143.989 54.9766C144.081 54.9766 144.169 54.9466 144.242 54.8911L149.108 51.1876C149.213 51.1076 149.275 50.9825 149.275 50.8497V44.8159C149.275 44.5821 149.087 44.3926 148.855 44.3926H140.911C140.819 44.3926 140.731 44.4226 140.658 44.4781L135.792 48.1816C135.687 48.2616 135.625 48.3867 135.625 48.5195V54.9766V58.0425C135.625 58.392 136.021 58.591 136.298 58.3804L140.658 55.0621C140.731 55.0066 140.819 54.9766 140.911 54.9766H143.989ZM144.97 49.9999C144.97 50.1344 144.907 50.2609 144.799 50.3407L143.086 51.613C143.014 51.6666 142.927 51.6956 142.837 51.6956H140.35C140.118 51.6956 139.93 51.506 139.93 51.2722V49.3693C139.93 49.2348 139.993 49.1083 140.101 49.0285L141.814 47.7562C141.886 47.7025 141.973 47.6736 142.063 47.6736H144.55C144.782 47.6736 144.97 47.8632 144.97 48.097V49.9999Z" fill="#2DB354"></path><defs><linearGradient id="paint0_linear_512_545" x1="175" y1="-67.274" x2="175" y2="130.627" gradientUnits="userSpaceOnUse"><stop stop-color="#4A208A"></stop><stop offset="1" stop-color="#1C1E1C"></stop></linearGradient></defs></svg>