<svg xmlns="http://www.w3.org/2000/svg" width="48" height="48" viewBox="0 0 48 48" fill="none"><rect width="48" height="48" rx="24" fill="#0D5B83"></rect><path d="M16.9607 36.2197H11.5212V19.8779H16.9607V36.2197ZM30.3132 19.4941C33.8922 19.4942 36.5749 21.8303 36.575 26.8496V36.2197H31.1365V27.4766C31.1364 25.2807 30.3494 23.7823 28.3806 23.7822C26.878 23.7822 25.9827 24.7928 25.5896 25.7686C25.4459 26.1182 25.4109 26.6055 25.4109 27.0938V36.2197H19.9714C19.9718 36.1472 20.0429 21.4076 19.9714 19.8779H25.4109V22.1934C26.1328 21.0807 27.4255 19.4941 30.3132 19.4941ZM14.2771 12C16.1375 12.0001 17.2836 13.2202 17.3191 14.8223C17.3191 16.3914 16.1374 17.6475 14.241 17.6475H14.2068C12.3808 17.6475 11.2 16.3914 11.2 14.8223C11.2002 13.2202 12.4166 12 14.2771 12Z" fill="white"></path></svg>