<svg xmlns="http://www.w3.org/2000/svg" width="2160" height="1207" viewBox="0 0 2160 1207" fill="none"><g filter="url(#filter0_f_521_513)"><path d="M1813.6 511.983V605.754C1813.6 642.574 1854.89 663.523 1883.69 641.317L1959.63 582.767C1970.22 574.604 1976.58 561.994 1976.97 548.511L1976.99 547.205V413.428C1976.99 388.804 1957.41 368.843 1933.26 368.843V345.377C1970.12 345.377 2000 375.845 2000 413.428V547.205C2000 568.531 1990.2 588.623 1973.51 601.485L1897.57 660.034C1860.71 688.458 1810.43 670.558 1795.17 630.895C1794.34 667.746 1764.79 697.362 1728.45 697.362H1639.57L1639.54 697.391L1544.66 770.442C1533.08 779.36 1518.96 784.184 1504.45 784.184H1320.71L1320.17 784.617L1319.8 784.485L1231.96 850.768C1195.27 878.454 1145.85 860.83 1130.37 821.876L1084.41 857.265C1072.83 866.183 1058.71 871.007 1044.2 871.007H858.683L857.211 873.528L853.791 871.587C853.164 872.119 852.526 872.643 851.876 873.157L762.853 943.553C751.152 952.807 736.765 957.83 721.957 957.83H531.926L440.063 1028.56C428.48 1037.48 414.361 1042.31 399.847 1042.31H225.736C188.879 1042.31 159 1011.84 159 974.256V570.629C159 549.288 168.818 529.182 185.521 516.321L292.162 434.21C303.745 425.292 317.864 420.467 332.378 420.467V443.933L331.486 443.942C322.292 444.133 313.382 447.277 306.031 452.937L199.389 535.048L198.375 535.852C188.049 544.298 182.012 557.084 182.012 570.629V974.256C182.012 998.879 201.588 1018.84 225.736 1018.84H399.847C409.059 1018.84 418.029 1015.87 425.48 1010.38L426.194 1009.84L524.216 934.364H721.957L722.865 934.355C731.943 934.163 740.738 931.093 748.028 925.572L748.751 925.012L837.774 854.616C838.679 853.9 839.544 853.162 840.372 852.406L846.101 847.542H1044.2C1053.41 847.542 1062.38 844.574 1069.83 839.076L1070.55 838.538L1148.54 778.483V796.066C1148.54 832.102 1188.14 853.021 1216.91 832.896L1218.27 831.906L1312.61 760.719H1504.45C1513.66 760.719 1522.63 757.752 1530.08 752.254L1530.8 751.715L1631.86 673.896H1728.45C1752.6 673.896 1772.18 653.935 1772.18 629.311V527.518L1792.76 511.983H1813.6ZM792.628 359.457L791.736 359.466C782.542 359.657 773.632 362.801 766.281 368.46L688.287 428.511V410.932C688.287 374.325 647.414 353.317 618.556 375.092L559.269 419.826L524.658 444.082L507.206 443.94C506.967 443.936 506.728 443.933 506.489 443.933H332.378V420.467H506.489C506.789 420.467 507.09 420.47 507.39 420.474H507.392L517.597 420.557L545.916 400.712L604.867 356.23C641.557 328.545 690.969 346.168 706.453 385.12L752.412 349.734C763.995 340.816 778.114 335.991 792.628 335.991V359.457ZM1792.89 230.396C1792.89 205.773 1773.31 185.811 1749.16 185.811V162.346C1786.02 162.346 1815.9 192.813 1815.9 230.396V340.157L1819.79 339.197L1818.97 345.377H1933.26V368.843H1792.89V230.396ZM1114.8 272.634L1113.91 272.643C1104.72 272.834 1095.81 275.978 1088.46 281.638L987.387 359.457H792.628V335.991H979.677L979.715 335.961L1074.59 262.911C1086.17 253.993 1100.29 249.168 1114.8 249.168V272.634ZM1575.05 185.811L1574.16 185.82C1564.97 186.012 1556.06 189.155 1548.71 194.815L1470.71 254.865V237.287C1470.71 200.679 1429.84 179.671 1400.98 201.447L1306.52 272.723L1289.36 272.636C1289.21 272.635 1289.06 272.634 1288.91 272.634H1114.8V249.168H1288.91C1289.1 249.168 1289.29 249.169 1289.48 249.171L1298.48 249.214L1299.08 248.735L1299.45 248.866L1387.29 182.585C1423.98 154.9 1473.39 172.522 1488.88 211.475L1534.84 176.088C1546.42 167.17 1560.54 162.346 1575.05 162.346V185.811ZM1749.16 162.346V185.811H1575.05V162.346H1749.16Z" fill="url(#paint0_linear_521_513)"></path></g><path fill-rule="evenodd" clip-rule="evenodd" d="M1848.12 486.172C1848.12 480.988 1844 476.786 1838.91 476.786H1784.42C1782.44 476.786 1780.53 477.431 1778.94 478.627L1741.39 506.965C1739.04 508.735 1737.66 511.534 1737.66 514.51V629.312C1737.66 634.496 1733.54 638.699 1728.45 638.699H1654.57H1652.51C1647.43 638.699 1643.31 634.496 1643.31 629.312V495.539C1643.31 492.596 1644.66 489.823 1646.96 488.049L1743.12 414.013C1747.01 411.014 1752.14 412.282 1754.61 415.843C1755.52 417.149 1756.07 418.763 1756.07 420.589C1756.07 427.346 1763.61 431.231 1768.94 427.222L1797.36 405.872C1798.94 404.684 1800.85 404.043 1802.82 404.043H1933.26C1938.35 404.043 1942.47 408.245 1942.47 413.429V547.206C1942.47 550.147 1941.12 552.919 1938.81 554.693L1862.87 613.242C1856.81 617.917 1848.12 613.507 1848.12 605.755V486.172ZM1769.49 383.088C1762.93 379.193 1755.39 377.048 1747.68 377.072C1739.04 377.099 1730.2 379.853 1722.32 385.924L1631.74 455.667L1626.16 459.959C1616.45 467.439 1610.29 478.659 1609.03 490.865C1608.87 492.409 1608.79 493.969 1608.79 495.539V580.035V596.461V629.312C1608.79 634.955 1609.82 640.353 1611.69 645.322C1616.03 656.82 1624.91 666.022 1636.09 670.645C1641.16 672.742 1646.7 673.897 1652.51 673.897H1728.45C1752.6 673.897 1772.18 653.936 1772.18 629.312V527.52L1792.76 511.984H1813.6V605.755C1813.6 642.575 1854.89 663.525 1883.69 641.319L1959.63 582.769C1970.56 574.342 1976.99 561.178 1976.99 547.206V413.429C1976.99 388.805 1957.41 368.844 1933.26 368.844H1802.82C1799.45 368.844 1796.12 369.239 1792.89 370.009C1792.76 370.04 1792.63 370.071 1792.5 370.103C1786.89 371.491 1781.58 374.005 1776.88 377.536L1769.49 383.088Z" fill="#09090B"></path><path fill-rule="evenodd" clip-rule="evenodd" d="M1637.44 669.605L1636.09 670.645L1631.86 673.897L1530.79 751.716C1523.21 757.559 1513.96 760.72 1504.45 760.72H1330.34C1325.27 760.72 1320.41 759.842 1315.89 758.228C1304.35 754.111 1295.02 745.203 1290.2 733.845C1287.89 728.416 1286.61 722.428 1286.61 716.135V582.362C1286.61 581.584 1286.63 580.808 1286.67 580.035C1286.92 575.145 1287.96 570.384 1289.69 565.922C1291.65 560.891 1294.5 556.241 1298.12 552.219C1299.89 550.246 1301.86 548.424 1303.99 546.782L1332.64 524.723L1410.63 464.671C1415.24 461.122 1420.46 458.562 1425.98 457.099C1429.55 456.154 1433.24 455.667 1436.98 455.667H1470.16H1611.09C1631.58 455.667 1648.77 470.037 1653.52 489.433C1654.36 492.897 1654.81 496.521 1654.81 500.252V570.648C1654.81 576.899 1653.55 582.848 1651.27 588.248C1653.55 593.647 1654.81 599.597 1654.81 605.847V634.025C1654.81 635.595 1654.73 637.155 1654.57 638.699C1653.31 650.905 1647.15 662.125 1637.44 669.605ZM1620.29 605.847C1620.29 600.663 1616.17 596.461 1611.09 596.461H1608.79H1479.92C1477.58 596.461 1475.45 597.347 1473.83 598.807C1471.92 600.527 1470.71 603.043 1470.71 605.847V610.54C1470.71 612.696 1471.42 614.681 1472.62 616.266C1472.98 616.742 1473.39 617.182 1473.83 617.58C1474.01 617.743 1474.2 617.899 1474.39 618.048C1474.55 618.167 1474.71 618.282 1474.87 618.391C1476.13 619.235 1477.6 619.772 1479.19 619.898C1479.43 619.917 1479.67 619.926 1479.92 619.926H1497.93C1498.98 619.926 1499.95 620.086 1500.84 620.377C1505.54 621.909 1508.01 627.074 1506.88 631.659C1506.41 633.609 1505.28 635.454 1503.39 636.869L1484.65 650.948C1484.54 651.036 1484.42 651.12 1484.3 651.202C1482.99 652.091 1481.48 652.623 1479.92 652.749C1479.68 652.768 1479.44 652.778 1479.19 652.778H1424.69C1419.6 652.778 1415.48 648.576 1415.48 643.392V601.204C1415.48 598.221 1416.87 595.416 1419.23 593.647L1456.77 565.439C1458.35 564.25 1460.27 563.609 1462.23 563.609H1517.89C1522.34 563.609 1525.94 567.286 1525.94 571.822C1525.94 576.358 1529.55 580.035 1534 580.035H1608.79H1611.09C1616.17 580.035 1620.29 575.832 1620.29 570.648V500.252C1620.29 495.068 1616.17 490.865 1611.09 490.865H1609.03H1444.47H1436.98C1434.97 490.865 1433.03 491.531 1431.43 492.761L1336.66 565.732L1330.46 570.506L1324.79 574.872C1322.48 576.645 1321.13 579.419 1321.13 582.362V716.135C1321.13 721.319 1325.25 725.521 1330.34 725.521H1332.57H1504.45C1506.45 725.521 1508.4 724.856 1509.99 723.626L1611.69 645.322L1616.64 641.515C1618.94 639.741 1620.29 636.968 1620.29 634.025V605.847Z" fill="#09090B"></path><path fill-rule="evenodd" clip-rule="evenodd" d="M1332.64 723.137C1332.64 723.935 1332.62 724.73 1332.57 725.521C1331.9 738.347 1325.83 750.282 1315.89 758.228C1315.57 758.481 1315.25 758.731 1314.92 758.976L1312.61 760.72L1218.27 831.907C1189.41 853.683 1148.54 832.676 1148.54 796.068V734.38V683.283V666.857V589.421C1148.54 585.36 1149.07 581.427 1150.07 577.688C1154.69 560.371 1169.29 547.247 1187.18 545.134C1187.64 543.314 1188.22 541.514 1188.92 539.745C1191.75 532.644 1196.57 526.053 1203.62 520.73L1262.9 475.995C1269.09 471.329 1275.82 468.628 1282.59 467.623C1296.96 465.49 1311.46 471.004 1321.13 481.608C1328.16 489.319 1332.64 499.723 1332.64 511.834V524.723V556.569C1332.64 561.436 1331.87 566.121 1330.46 570.506C1330.19 571.347 1329.89 572.177 1329.57 572.995C1331.55 578.078 1332.64 583.62 1332.64 589.421V723.137ZM1298.12 723.137C1298.12 726.113 1296.73 728.912 1294.39 730.682L1290.2 733.845L1197.74 803.613C1191.66 808.198 1183.06 803.775 1183.06 796.068V750.989V589.421C1183.06 584.237 1187.18 580.035 1192.26 580.035H1194.02H1286.67H1288.91C1294 580.035 1298.12 584.237 1298.12 589.421V723.137ZM1298.12 511.834C1298.12 504.128 1289.51 499.705 1283.44 504.289L1224.15 549.024C1220.66 551.661 1219.77 555.778 1220.82 559.291C1221.91 562.95 1225.1 565.955 1229.63 565.955H1288.91C1289.18 565.955 1289.44 565.944 1289.69 565.922C1294.41 565.519 1298.12 561.485 1298.12 556.569V552.219V551.747V511.834Z" fill="#09090B"></path><path fill-rule="evenodd" clip-rule="evenodd" d="M1177.19 756.427L1070.55 838.538C1062.96 844.381 1053.71 847.543 1044.2 847.543H870.086C863.331 847.543 856.934 845.981 851.224 843.192C850.425 842.802 849.639 842.388 848.868 841.951C835.445 834.34 826.362 819.73 826.362 802.958V793.572V732.561C826.362 726.311 827.623 720.361 829.9 714.962C827.623 709.563 826.362 703.613 826.362 697.363V669.185C826.362 667.615 826.443 666.055 826.602 664.511C827.863 652.304 834.023 641.084 843.737 633.605L849.312 629.312L950.379 551.494C954.989 547.945 960.211 545.385 965.733 543.922C969.301 542.977 972.994 542.49 976.727 542.49H1010.22H1150.84C1172.64 542.49 1190.71 558.756 1194.02 580.035C1194.38 582.328 1194.56 584.679 1194.56 587.074V657.471C1194.56 663.721 1193.3 669.671 1191.02 675.07C1193.3 680.47 1194.56 686.419 1194.56 692.67V720.846C1194.56 732.104 1190.39 742.836 1183.06 750.989C1181.28 752.962 1179.32 754.785 1177.19 756.427ZM1160.04 692.67C1160.04 687.486 1155.92 683.283 1150.84 683.283H1148.54H983.241C976.695 683.283 972.948 677.006 974.289 671.551C974.768 669.601 975.897 667.756 977.781 666.341L996.52 652.26C996.636 652.173 996.754 652.089 996.873 652.008C998.383 650.981 1000.16 650.43 1001.98 650.43L1057.64 650.431C1062.09 650.431 1065.69 654.109 1065.69 658.644C1065.69 663.18 1069.3 666.857 1073.75 666.857H1148.54H1150.84C1155.92 666.857 1160.04 662.655 1160.04 657.471V587.074C1160.04 581.891 1155.92 577.688 1150.84 577.688H1150.07H987.512H976.727C974.725 577.688 972.777 578.354 971.18 579.584L864.539 661.694C862.235 663.468 860.881 666.241 860.881 669.185V697.363C860.881 702.547 865.002 706.749 870.086 706.749H872.387H1037.68C1044.23 706.749 1047.97 713.027 1046.63 718.482C1046.15 720.432 1045.03 722.276 1043.14 723.692L1024.4 737.771C1024.29 737.858 1024.17 737.943 1024.05 738.024C1022.54 739.051 1020.76 739.601 1018.94 739.601H963.286C958.838 739.601 955.232 735.924 955.232 731.388C955.232 726.852 951.626 723.175 947.177 723.175H872.387H870.086C865.002 723.175 860.881 727.377 860.881 732.561V802.958C860.881 805.858 862.17 808.45 864.196 810.172C865.792 811.528 867.845 812.344 870.086 812.344H1044.2C1046.2 812.344 1048.15 811.679 1049.74 810.449L1148.54 734.38L1156.39 728.337C1158.69 726.563 1160.04 723.79 1160.04 720.846V692.67Z" fill="#09090B"></path><path fill-rule="evenodd" clip-rule="evenodd" d="M679.494 793.572C676.996 793.572 674.907 792.658 673.351 791.225C671.814 789.809 670.799 787.886 670.428 785.835C669.839 782.577 670.877 778.998 674.036 776.627L680.099 772.075C681.681 770.887 683.593 770.247 685.557 770.247H734.312C739.396 770.247 743.517 766.045 743.517 760.861V746.641C743.517 741.457 739.396 737.254 734.312 737.254H679.816C677.845 737.254 675.925 737.9 674.34 739.095L636.786 767.433C634.44 769.203 633.057 772.002 633.057 774.978V817.037C633.057 822.221 637.178 826.424 642.262 826.424H696.725C698.716 826.424 700.654 825.765 702.248 824.546L718.203 812.344L719.336 811.574C720.848 810.546 722.624 809.998 724.441 809.998H810.978C819.749 809.998 823.55 821.32 816.619 826.801L727.597 897.198C725.983 898.474 723.998 899.167 721.956 899.167H549.667H547.911C542.827 899.167 538.706 894.965 538.706 889.781V756.008C538.706 753.064 540.06 750.291 542.364 748.517L550.212 742.474L554.233 739.378L649.005 666.407C650.602 665.176 652.55 664.511 654.552 664.511H662.041H826.602H828.663C833.747 664.511 837.868 668.713 837.868 673.897V784.185C837.868 789.369 833.747 793.572 828.663 793.572H826.362H679.494ZM854.787 819.941C858.393 817.197 861.57 813.899 864.196 810.172C869.351 802.855 872.387 793.882 872.387 784.185V723.175V706.749V673.897C872.387 670.166 871.937 666.542 871.091 663.079C866.349 643.683 849.152 629.312 828.663 629.312H687.733H654.552C650.819 629.312 647.126 629.8 643.558 630.745C638.036 632.208 632.814 634.767 628.204 638.317L550.212 698.368L521.562 720.427C510.62 728.853 504.187 742.025 504.187 756.008V889.781C504.187 907.718 514.575 923.181 529.551 930.256C535.133 932.894 541.353 934.365 547.911 934.365H721.956C731.658 934.365 741.084 931.075 748.751 925.012L837.773 854.616C838.677 853.9 839.543 853.164 840.371 852.409C842.066 850.862 843.602 849.236 844.985 847.543C846.45 845.747 847.743 843.878 848.868 841.951C852.881 835.079 854.767 827.481 854.787 819.941Z" fill="#09090B"></path><path fill-rule="evenodd" clip-rule="evenodd" d="M199.387 804.903L306.029 722.793C313.617 716.95 322.868 713.789 332.377 713.789L391.363 713.789L480.14 645.433C499.792 630.301 525.244 635.246 539.435 651.603C546.045 659.222 550.212 669.318 550.212 681.014V698.368V742.474L550.212 892.146C550.212 894.516 550.027 896.863 549.667 899.167C547.902 910.457 541.924 920.729 532.836 927.727L529.551 930.256L524.214 934.365L426.195 1009.84C418.606 1015.68 409.356 1018.84 399.847 1018.84H225.735C201.587 1018.84 182.012 998.88 182.012 974.257L182.012 840.484C182.012 829.605 185.906 819.217 192.788 811.172C194.752 808.878 196.959 806.774 199.387 804.903Z" fill="#09090B"></path><path fill-rule="evenodd" clip-rule="evenodd" d="M1775.51 399.751L1754.61 415.843L1668.87 481.861C1664.26 485.411 1659.04 487.97 1653.52 489.433C1649.95 490.378 1646.25 490.865 1642.52 490.865H1609.03H1468.41C1447.92 490.865 1430.72 476.495 1425.98 457.099C1425.14 453.636 1424.69 450.012 1424.69 446.281V312.508C1424.69 301.25 1428.86 290.518 1436.19 282.365C1437.97 280.391 1439.93 278.569 1442.06 276.927L1548.7 194.817C1556.29 188.974 1565.54 185.812 1575.05 185.812H1749.16C1773.31 185.812 1792.89 205.774 1792.89 230.397V364.17C1792.89 365.74 1792.81 367.3 1792.65 368.844C1792.6 369.265 1792.55 369.685 1792.5 370.103C1790.96 381.82 1784.89 392.529 1775.51 399.751ZM1629.5 328.953H1608.62L1588.08 344.392V347.725H1608.95L1629.5 332.286V328.953ZM1754.71 371.661C1757.01 369.887 1758.37 367.114 1758.37 364.17V230.397C1758.37 225.213 1754.25 221.011 1749.16 221.011H1575.05C1573.05 221.011 1571.1 221.676 1569.5 222.907L1470.71 298.974L1462.86 305.017C1460.56 306.791 1459.21 309.564 1459.21 312.508V446.281C1459.21 451.465 1463.33 455.667 1468.41 455.667H1470.16H1631.74H1642.52C1644.52 455.667 1646.47 455.001 1648.07 453.771L1747.68 377.072L1754.71 371.661ZM1660.27 352.885C1662.63 351.116 1664.02 348.311 1664.02 345.329V303.141C1664.02 297.957 1659.9 293.754 1654.81 293.754H1600.31C1598.34 293.754 1596.43 294.395 1594.85 295.584L1557.3 323.793C1554.95 325.562 1553.56 328.367 1553.56 331.349V373.537C1553.56 378.721 1557.68 382.924 1562.76 382.924H1617.27C1619.23 382.924 1621.15 382.282 1622.73 381.094L1660.27 352.885Z" fill="#09090B"></path><path fill-rule="evenodd" clip-rule="evenodd" d="M1470.71 448.589C1470.71 450.979 1470.52 453.345 1470.16 455.667C1468.36 467.08 1462.26 477.442 1453 484.428L1444.47 490.865L1356.34 557.36C1350.16 562.026 1343.43 564.727 1336.66 565.732C1322.29 567.865 1307.79 562.351 1298.12 551.747C1291.09 544.036 1286.61 533.632 1286.61 521.521V508.632V464.526V310.218C1286.61 309.42 1286.63 308.625 1286.67 307.834C1287.35 295.008 1293.42 283.073 1303.36 275.127C1303.68 274.874 1304 274.624 1304.33 274.379L1306.52 272.725L1400.98 201.448C1429.84 179.672 1470.71 200.679 1470.71 237.287V298.974V448.589ZM1436.19 448.589C1436.19 451.565 1434.81 454.364 1432.46 456.135L1335.81 529.066C1329.74 533.65 1321.13 529.227 1321.13 521.521V481.608V481.136V310.218C1321.13 307.242 1322.51 304.443 1324.86 302.673L1329.05 299.51L1421.51 229.742C1427.59 225.157 1436.19 229.58 1436.19 237.287V282.365V448.589Z" fill="#09090B"></path><path fill-rule="evenodd" clip-rule="evenodd" d="M1315.26 486.573L1286.61 508.632L1220.82 559.291L1208.62 568.684C1201.03 574.527 1191.78 577.688 1182.27 577.688H1150.07H1008.16C987.672 577.688 970.474 563.318 965.733 543.922C964.886 540.458 964.437 536.834 964.437 533.103V523.717V483.826V399.33C964.437 397.76 964.518 396.2 964.677 394.656C965.938 382.45 972.098 371.23 981.812 363.75L983.163 362.71L987.387 359.458L1088.45 281.64C1096.04 275.796 1105.29 272.635 1114.8 272.635H1288.91C1289.06 272.635 1289.21 272.636 1289.36 272.638C1294.26 272.688 1298.97 273.561 1303.36 275.127C1314.9 279.244 1324.23 288.152 1329.05 299.51C1331.36 304.939 1332.64 310.927 1332.64 317.22V450.993C1332.64 462.25 1328.47 472.983 1321.13 481.136C1319.35 483.109 1317.39 484.931 1315.26 486.573ZM1169.25 415.775H1148.37L1127.83 431.215V434.548H1148.7L1169.25 419.108V415.775ZM1294.46 458.484C1296.76 456.71 1298.12 453.937 1298.12 450.993V317.22C1298.12 312.036 1294 307.834 1288.91 307.834H1286.67H1114.8C1112.8 307.834 1110.85 308.499 1109.25 309.729L1007.56 388.033L1002.61 391.84C1000.31 393.614 998.956 396.387 998.956 399.33V533.103C998.956 538.287 1003.08 542.49 1008.16 542.49H1010.22H1182.27C1184.27 542.49 1186.22 541.824 1187.82 540.594L1188.92 539.745L1282.59 467.623L1286.61 464.526L1294.46 458.484ZM1200.02 439.708C1202.38 437.939 1203.77 435.134 1203.77 432.152V389.963C1203.77 384.779 1199.65 380.577 1194.56 380.577H1140.06C1138.09 380.577 1136.18 381.218 1134.6 382.407L1097.05 410.615C1094.7 412.385 1093.31 415.189 1093.31 418.172V460.36C1093.31 465.544 1097.43 469.746 1102.51 469.746H1157.02C1158.98 469.746 1160.9 469.105 1162.48 467.917L1200.02 439.708Z" fill="#09090B"></path><path fill-rule="evenodd" clip-rule="evenodd" d="M993.086 573.396L987.512 577.688L886.445 655.507C881.835 659.056 876.612 661.616 871.091 663.079C867.523 664.024 863.83 664.511 860.097 664.511H826.602H685.986C665.497 664.511 648.299 650.14 643.558 630.745C642.711 627.281 642.262 623.657 642.262 619.926V486.153C642.262 483.783 642.447 481.437 642.807 479.133C643.616 473.956 645.311 468.993 647.785 464.462C649.44 461.433 651.442 458.596 653.762 456.017C655.539 454.041 657.502 452.217 659.637 450.573L766.279 368.462C773.868 362.619 783.118 359.458 792.627 359.458H966.738C972.547 359.458 978.092 360.613 983.163 362.71C994.341 367.334 1003.22 376.535 1007.56 388.033C1009.43 393.002 1010.46 398.4 1010.46 404.043V474.439C1010.46 485.671 1006.39 495.932 999.668 503.771C1006.39 511.611 1010.46 521.872 1010.46 533.103V537.816C1010.46 539.386 1010.38 540.946 1010.22 542.49C1008.96 554.696 1002.8 565.917 993.086 573.396ZM851.509 502.598H826.199L805.651 518.038V521.371H826.524L851.509 502.598ZM884.617 523.717C882.652 523.717 880.738 524.358 879.156 525.547L840.303 554.739C838.721 555.928 836.808 556.569 834.843 556.569H780.337C775.253 556.569 771.132 552.367 771.132 547.183V504.995C771.132 502.012 772.522 499.207 774.876 497.438L812.42 469.23C814.002 468.041 815.916 467.4 817.881 467.4H873.537C877.986 467.4 881.592 471.077 881.592 475.613C881.592 480.149 885.198 483.826 889.646 483.826H964.437H966.738C971.822 483.826 975.943 479.623 975.943 474.439V404.043C975.943 398.859 971.822 394.656 966.738 394.656H964.677H792.627C790.625 394.656 788.677 395.322 787.08 396.552L686.034 474.354L680.439 478.663C678.135 480.436 676.781 483.21 676.781 486.153V619.926C676.781 625.11 680.902 629.312 685.986 629.312H687.733H849.312H860.097C862.099 629.312 864.046 628.647 865.644 627.417L972.285 545.306C974.589 543.532 975.943 540.759 975.943 537.816V533.103C975.943 527.92 971.822 523.717 966.738 523.717H964.437H884.617Z" fill="#09090B"></path><path fill-rule="evenodd" clip-rule="evenodd" d="M688.287 622.235C688.287 624.625 688.099 626.99 687.733 629.312C685.934 640.726 679.83 651.088 670.572 658.074L662.041 664.511L573.919 731.005C567.736 735.671 561 738.373 554.233 739.378C529.421 743.062 504.187 723.93 504.187 695.166V488.519C504.187 471.536 513.498 456.772 527.199 449.244C531.949 446.634 537.227 444.893 542.827 444.232C545.137 435.104 550.458 426.477 559.269 419.828L618.554 375.093C647.413 353.317 688.287 374.325 688.287 410.932V455.667C688.287 461.468 687.2 467.01 685.224 472.093C685.513 472.837 685.783 473.591 686.034 474.354C687.495 478.804 688.287 483.567 688.287 488.519V622.235ZM653.768 622.235C653.768 625.211 652.384 628.01 650.039 629.78L553.386 702.711C547.311 707.296 538.706 702.873 538.706 695.166V488.519C538.706 483.335 542.827 479.133 547.911 479.133H549.241H642.807H644.563C649.647 479.133 653.768 483.335 653.768 488.519V622.235ZM653.768 410.932C653.768 403.225 645.163 398.803 639.088 403.387L579.803 448.122C572.668 453.506 576.402 465.053 585.278 465.053H644.563C645.697 465.053 646.782 464.844 647.785 464.462C651.178 463.169 653.622 459.893 653.762 456.017C653.766 455.901 653.768 455.784 653.768 455.667V410.932Z" fill="#09090B"></path><path fill-rule="evenodd" clip-rule="evenodd" d="M532.836 657.872L426.195 739.983C418.606 745.826 409.356 748.987 399.847 748.987H340.86L252.084 817.343C232.431 832.474 206.979 827.53 192.788 811.172C186.179 803.553 182.012 793.458 182.012 781.762V570.629C182.012 556.647 188.444 543.475 199.387 535.049L306.029 452.938C313.617 447.095 322.867 443.934 332.377 443.934H506.488C506.728 443.934 506.967 443.936 507.206 443.94C514.432 444.059 521.232 445.965 527.199 449.244C538.302 455.344 546.523 466.198 549.241 479.133C549.877 482.159 550.212 485.299 550.212 488.519V622.292C550.212 633.171 546.318 643.559 539.435 651.603C537.472 653.898 535.265 656.002 532.836 657.872Z" fill="#09090B"></path><path d="M182.012 840.484C182.012 829.605 185.906 819.217 192.788 811.172C186.179 803.553 182.012 793.458 182.012 781.762L182.012 840.484Z" fill="#09090B"></path><path d="M542.827 444.232C545.137 435.104 550.458 426.477 559.269 419.828L524.657 444.083L542.827 444.232Z" fill="#09090B"></path><path d="M527.199 449.244C531.949 446.634 537.227 444.893 542.827 444.232L524.657 444.083L507.206 443.94C514.432 444.059 521.232 445.965 527.199 449.244Z" fill="#09090B"></path><path d="M647.785 464.462C649.44 461.433 651.442 458.596 653.762 456.017C653.766 455.901 653.768 455.784 653.768 455.667V410.932C653.768 403.225 645.163 398.803 639.088 403.387L579.803 448.122C572.668 453.506 576.402 465.053 585.278 465.053H644.563C645.697 465.053 646.782 464.844 647.785 464.462Z" fill="#09090B"></path><path d="M628.204 638.317C632.814 634.767 638.036 632.208 643.558 630.745C642.711 627.281 642.262 623.657 642.262 619.926V486.153C642.262 483.783 642.447 481.437 642.807 479.133H549.241C549.877 482.159 550.212 485.299 550.212 488.519V622.292C550.212 633.171 546.318 643.559 539.435 651.603C546.045 659.222 550.212 669.318 550.212 681.014V698.368L628.204 638.317Z" fill="#09090B"></path><path d="M849.312 629.312L950.379 551.494C954.989 547.945 960.211 545.385 965.733 543.922C964.886 540.458 964.437 536.834 964.437 533.103V523.717H884.617C882.652 523.717 880.738 524.358 879.156 525.547L840.303 554.739C838.721 555.928 836.808 556.569 834.843 556.569H780.337C775.253 556.569 771.132 552.367 771.132 547.183V504.995C771.132 502.012 772.522 499.207 774.876 497.438L812.42 469.23C814.002 468.041 815.916 467.4 817.881 467.4H873.537C877.986 467.4 881.592 471.077 881.592 475.613C881.592 480.149 885.198 483.826 889.646 483.826H964.437V399.33C964.437 397.76 964.518 396.2 964.677 394.656H792.627C790.625 394.656 788.677 395.322 787.08 396.552L686.034 474.354C687.495 478.804 688.287 483.567 688.287 488.519V622.235C688.287 624.625 688.099 626.99 687.733 629.312H828.663H849.312Z" fill="#09090B"></path><path d="M826.199 502.598H851.509L826.524 521.371H805.651V518.038L826.199 502.598Z" fill="#09090B"></path><path fill-rule="evenodd" clip-rule="evenodd" d="M1188.92 539.745C1191.75 532.644 1196.57 526.053 1203.62 520.73L1262.9 475.995C1269.09 471.329 1275.82 468.628 1282.59 467.623L1286.61 464.526V310.218C1286.61 309.42 1286.63 308.625 1286.67 307.834H1114.8C1112.8 307.834 1110.85 308.499 1109.25 309.729L1007.56 388.033C1009.43 393.002 1010.46 398.4 1010.46 404.043V474.439C1010.46 485.671 1006.39 495.932 999.668 503.771C1006.39 511.611 1010.46 521.872 1010.46 533.103V537.816C1010.46 539.386 1010.38 540.946 1010.22 542.49H1150.84H1182.27C1184.27 542.49 1186.22 541.824 1187.82 540.594L1188.92 539.745ZM1200.02 439.708C1202.38 437.939 1203.77 435.134 1203.77 432.152V389.963C1203.77 384.779 1199.65 380.577 1194.56 380.577H1140.06C1138.09 380.577 1136.18 381.218 1134.6 382.407L1097.05 410.615C1094.7 412.385 1093.31 415.189 1093.31 418.172V460.36C1093.31 465.544 1097.43 469.746 1102.51 469.746H1157.02C1158.98 469.746 1160.9 469.105 1162.48 467.917L1200.02 439.708Z" fill="#09090B"></path><path d="M1148.37 415.775H1169.25V419.108L1148.7 434.548H1127.83V431.215L1148.37 415.775Z" fill="#09090B"></path><path d="M1332.64 524.723L1410.63 464.671C1415.24 461.122 1420.46 458.562 1425.98 457.099C1425.14 453.636 1424.69 450.012 1424.69 446.281V312.508C1424.69 301.25 1428.86 290.518 1436.19 282.365V237.287C1436.19 229.58 1427.59 225.157 1421.51 229.742L1329.05 299.51C1331.36 304.939 1332.64 310.927 1332.64 317.22V450.993C1332.64 462.25 1328.47 472.983 1321.13 481.136V481.608C1328.16 489.319 1332.64 499.723 1332.64 511.834V524.723Z" fill="#09090B"></path><path fill-rule="evenodd" clip-rule="evenodd" d="M1722.32 385.924C1730.2 379.853 1739.04 377.099 1747.68 377.072L1754.71 371.661C1757.01 369.887 1758.37 367.114 1758.37 364.17V230.397C1758.37 225.213 1754.25 221.011 1749.16 221.011H1575.05C1573.05 221.011 1571.1 221.676 1569.5 222.907L1470.71 298.974V448.589C1470.71 450.979 1470.52 453.345 1470.16 455.667H1611.09H1631.74L1722.32 385.924ZM1660.27 352.885C1662.63 351.116 1664.02 348.311 1664.02 345.329V303.141C1664.02 297.957 1659.9 293.754 1654.81 293.754H1600.31C1598.34 293.754 1596.43 294.395 1594.85 295.584L1557.3 323.793C1554.95 325.562 1553.56 328.367 1553.56 331.349V373.537C1553.56 378.721 1557.68 382.924 1562.76 382.924H1617.27C1619.23 382.924 1621.15 382.282 1622.73 381.094L1660.27 352.885Z" fill="#09090B"></path><path d="M1608.62 328.953H1629.5V332.286L1608.95 347.725H1588.08V344.392L1608.62 328.953Z" fill="#09090B"></path><path d="M1838.91 476.786C1844 476.786 1848.12 480.988 1848.12 486.172V605.755C1848.12 613.507 1856.81 617.917 1862.87 613.242L1938.81 554.693C1941.12 552.919 1942.47 550.147 1942.47 547.206V413.429C1942.47 408.245 1938.35 404.043 1933.26 404.043H1802.82C1800.85 404.043 1798.94 404.684 1797.36 405.872L1768.94 427.222C1763.61 431.231 1756.07 427.346 1756.07 420.589C1756.07 418.763 1755.52 417.149 1754.61 415.843L1668.87 481.861C1664.26 485.411 1659.04 487.97 1653.52 489.433C1654.36 492.897 1654.81 496.521 1654.81 500.252V570.648C1654.81 576.899 1653.55 582.848 1651.27 588.248C1653.55 593.647 1654.81 599.597 1654.81 605.847V634.025C1654.81 635.595 1654.73 637.155 1654.57 638.699H1728.45C1733.54 638.699 1737.66 634.496 1737.66 629.312V514.51C1737.66 511.534 1739.04 508.735 1741.39 506.965L1778.94 478.627C1780.53 477.431 1782.44 476.786 1784.42 476.786H1838.91Z" fill="#09090B"></path><path d="M1608.79 495.539C1608.79 493.969 1608.87 492.409 1609.03 490.865H1468.41H1444.47L1356.34 557.36C1350.16 562.026 1343.43 564.727 1336.66 565.732L1330.46 570.506C1330.19 571.347 1329.89 572.177 1329.57 572.995C1331.55 578.078 1332.64 583.62 1332.64 589.421V723.137C1332.64 723.935 1332.62 724.73 1332.57 725.521H1504.45C1506.45 725.521 1508.4 724.856 1509.99 723.626L1611.69 645.322C1609.82 640.353 1608.79 634.955 1608.79 629.312V596.461H1479.92C1477.58 596.461 1475.45 597.347 1473.83 598.807C1471.92 600.527 1470.71 603.043 1470.71 605.847V610.54C1470.71 612.696 1471.42 614.681 1472.62 616.266C1472.98 616.742 1473.39 617.182 1473.83 617.58C1474.01 617.743 1474.2 617.899 1474.39 618.048C1474.55 618.167 1474.71 618.282 1474.87 618.391C1476.13 619.235 1477.6 619.772 1479.19 619.898C1479.43 619.917 1479.67 619.926 1479.92 619.926H1497.93C1498.98 619.926 1499.95 620.086 1500.84 620.377C1505.54 621.909 1508.01 627.074 1506.88 631.659C1506.41 633.609 1505.28 635.454 1503.39 636.869L1484.65 650.948C1484.54 651.036 1484.42 651.12 1484.3 651.202C1482.99 652.091 1481.48 652.623 1479.92 652.749C1479.68 652.768 1479.44 652.778 1479.19 652.778H1424.69C1419.6 652.778 1415.48 648.576 1415.48 643.392V601.204C1415.48 598.221 1416.87 595.416 1419.23 593.647L1456.77 565.439C1458.35 564.25 1460.27 563.609 1462.23 563.609H1517.89C1522.34 563.609 1525.94 567.286 1525.94 571.822C1525.94 576.358 1529.55 580.035 1534 580.035H1608.79V495.539Z" fill="#09090B"></path><path d="M1289.69 565.922C1291.65 560.891 1294.5 556.241 1298.12 552.219V551.747C1291.09 544.036 1286.61 533.632 1286.61 521.521V508.632L1220.82 559.291C1221.91 562.95 1225.1 565.955 1229.63 565.955H1288.91C1289.18 565.955 1289.44 565.944 1289.69 565.922Z" fill="#09090B"></path><path d="M1290.2 733.845C1287.89 728.416 1286.61 722.428 1286.61 716.135V582.362C1286.61 581.584 1286.63 580.808 1286.67 580.035H1194.02C1194.38 582.328 1194.56 584.679 1194.56 587.074V657.471C1194.56 663.721 1193.3 669.671 1191.02 675.07C1193.3 680.47 1194.56 686.419 1194.56 692.67V720.846C1194.56 732.104 1190.39 742.836 1183.06 750.989V796.068C1183.06 803.775 1191.66 808.198 1197.74 803.613L1290.2 733.845Z" fill="#09090B"></path><path d="M1148.54 589.421C1148.54 585.36 1149.07 581.427 1150.07 577.688H1008.16H987.512L886.445 655.507C881.835 659.056 876.612 661.616 871.091 663.079C871.937 666.542 872.387 670.166 872.387 673.897V706.749H1037.68C1044.23 706.749 1047.97 713.027 1046.63 718.482C1046.15 720.432 1045.03 722.276 1043.14 723.692L1024.4 737.771C1024.29 737.858 1024.17 737.943 1024.05 738.024C1022.54 739.051 1020.76 739.601 1018.94 739.601H963.286C958.838 739.601 955.232 735.924 955.232 731.388C955.232 726.852 951.626 723.175 947.177 723.175H872.387V784.185C872.387 793.882 869.351 802.855 864.196 810.172C865.792 811.528 867.845 812.344 870.086 812.344H1044.2C1046.2 812.344 1048.15 811.679 1049.74 810.449L1148.54 734.38V683.283H983.241C976.695 683.283 972.948 677.006 974.289 671.551C974.768 669.601 975.897 667.756 977.781 666.341L996.52 652.26C996.636 652.173 996.754 652.089 996.873 652.008C998.383 650.981 1000.16 650.43 1001.98 650.43L1057.64 650.431C1062.09 650.431 1065.69 654.109 1065.69 658.644C1065.69 663.18 1069.3 666.857 1073.75 666.857H1148.54V589.421Z" fill="#09090B"></path><path d="M826.362 793.572V732.561C826.362 726.311 827.623 720.361 829.9 714.962C827.623 709.563 826.362 703.613 826.362 697.363V669.185C826.362 667.615 826.443 666.055 826.602 664.511H685.986H662.041L573.919 731.005C567.736 735.671 561 738.373 554.233 739.378L550.212 742.474L550.212 892.146C550.212 894.516 550.027 896.863 549.667 899.167H721.956C723.998 899.167 725.983 898.474 727.597 897.198L816.619 826.801C823.55 821.32 819.749 809.998 810.978 809.998H724.441C722.624 809.998 720.848 810.546 719.336 811.574L718.203 812.344L702.248 824.546C700.654 825.765 698.716 826.424 696.725 826.424H642.262C637.178 826.424 633.057 822.221 633.057 817.037V774.978C633.057 772.002 634.44 769.203 636.786 767.433L674.34 739.095C675.925 737.9 677.845 737.254 679.816 737.254H734.312C739.396 737.254 743.517 741.457 743.517 746.641V760.861C743.517 766.045 739.396 770.247 734.312 770.247H685.557C683.593 770.247 681.681 770.887 680.099 772.075L674.036 776.627C670.877 778.998 669.839 782.577 670.428 785.835C670.799 787.886 671.814 789.809 673.351 791.225C674.907 792.658 676.996 793.572 679.494 793.572H826.362Z" fill="#09090B"></path><path d="M966.738 359.458C972.547 359.458 978.092 360.613 983.163 362.71L987.387 359.458H966.738Z" fill="#09090B"></path><path d="M1303.36 275.127C1303.68 274.874 1304 274.624 1304.33 274.379L1306.52 272.725L1289.36 272.638C1294.26 272.688 1298.97 273.561 1303.36 275.127Z" fill="#09090B"></path><path d="M1792.89 368.844V364.17C1792.89 365.74 1792.81 367.3 1792.65 368.844H1792.89Z" fill="#09090B"></path><path d="M1792.5 370.103C1792.63 370.071 1792.76 370.04 1792.89 370.009V368.844H1792.65C1792.6 369.265 1792.55 369.685 1792.5 370.103Z" fill="#09090B"></path><path d="M1792.89 370.009C1796.12 369.239 1799.45 368.844 1802.82 368.844H1792.89V370.009Z" fill="#09090B"></path><path d="M1652.51 673.897C1646.7 673.897 1641.16 672.742 1636.09 670.645L1631.86 673.897H1652.51Z" fill="#09090B"></path><path d="M1315.89 758.228C1315.57 758.481 1315.25 758.731 1314.92 758.976L1312.61 760.72H1330.34C1325.27 760.72 1320.41 759.842 1315.89 758.228Z" fill="#09090B"></path><path d="M848.868 841.951C847.743 843.878 846.45 845.747 844.985 847.543H846.101L851.224 843.192C850.425 842.802 849.639 842.388 848.868 841.951Z" fill="#09090B"></path><path d="M870.086 847.543C863.331 847.543 856.934 845.981 851.224 843.192L846.101 847.543H870.086Z" fill="#09090B"></path><path d="M844.985 847.543C843.602 849.236 842.066 850.862 840.371 852.409L846.101 847.543H844.985Z" fill="#09090B"></path><path d="M547.911 934.365C541.353 934.365 535.133 932.894 529.551 930.256L524.214 934.365H547.911Z" fill="#09090B"></path><path fill-rule="evenodd" clip-rule="evenodd" d="M1942.47 547.206C1942.47 550.148 1941.12 552.919 1938.82 554.693L1862.87 613.243C1856.81 617.918 1848.12 613.507 1848.12 605.756V532.963V486.173C1848.12 480.989 1844 476.786 1838.91 476.786H1784.42C1782.45 476.786 1780.53 477.432 1778.94 478.628L1741.39 506.965C1739.04 508.735 1737.66 511.534 1737.66 514.51V565.956V629.313C1737.66 634.497 1733.54 638.699 1728.45 638.699H1652.51C1647.43 638.699 1643.31 634.497 1643.31 629.313V495.54C1643.31 492.596 1644.66 489.823 1646.96 488.049L1743.12 414.014C1748.44 409.915 1756.07 413.787 1756.07 420.589V420.589C1756.07 427.347 1763.61 431.231 1768.94 427.222L1797.36 405.873C1798.94 404.684 1800.85 404.043 1802.82 404.043H1829.71H1933.26C1938.35 404.043 1942.47 408.245 1942.47 413.429V547.206Z" fill="#F5F5F5"></path><path d="M1504.45 725.521C1506.45 725.521 1508.4 724.856 1509.99 723.626L1616.64 641.515C1618.94 639.741 1620.29 636.968 1620.29 634.025V605.847C1620.29 600.663 1616.17 596.46 1611.09 596.46H1525.94H1479.92C1474.83 596.46 1470.71 600.663 1470.71 605.847V610.54C1470.71 615.724 1474.83 619.926 1479.92 619.926H1497.93C1506.82 619.926 1510.55 631.494 1503.39 636.869L1484.65 650.948C1483.07 652.137 1481.16 652.778 1479.19 652.778H1424.69C1419.6 652.778 1415.48 648.576 1415.48 643.392V601.203C1415.48 598.221 1416.87 595.416 1419.23 593.647L1456.77 565.438C1458.35 564.25 1460.27 563.609 1462.23 563.609H1517.89C1522.34 563.609 1525.94 567.286 1525.94 571.822V571.822C1525.94 576.357 1529.55 580.035 1534 580.035H1611.09C1616.17 580.035 1620.29 575.832 1620.29 570.648V500.251C1620.29 495.068 1616.17 490.865 1611.09 490.865H1507.53H1436.98C1434.98 490.865 1433.03 491.531 1431.43 492.761L1324.79 574.871C1322.49 576.645 1321.13 579.418 1321.13 582.362V716.135C1321.13 721.319 1325.25 725.521 1330.34 725.521H1433.89H1504.45Z" fill="#F5F5F5"></path><path fill-rule="evenodd" clip-rule="evenodd" d="M1294.39 732.199C1296.74 730.417 1298.12 727.599 1298.12 724.603V611.258V587.652C1298.12 582.434 1294 578.204 1288.91 578.204H1192.26C1187.18 578.204 1183.06 582.434 1183.06 587.652V729.366V798.019C1183.06 805.777 1191.66 810.229 1197.74 805.614L1294.39 732.199ZM1224.15 549.334C1217.02 554.753 1220.75 566.378 1229.63 566.378H1288.91C1294 566.378 1298.12 562.147 1298.12 556.929V511.897C1298.12 504.139 1289.51 499.687 1283.44 504.302L1224.15 549.334Z" fill="#F5F5F5"></path><path d="M1044.2 812.345C1046.2 812.345 1048.15 811.679 1049.74 810.449L1156.39 728.337C1158.69 726.563 1160.04 723.79 1160.04 720.847V692.67C1160.04 687.486 1155.92 683.284 1150.84 683.284H1065.69H983.241C974.356 683.284 970.628 671.716 977.781 666.341L996.52 652.261C998.102 651.072 1000.02 650.431 1001.98 650.431L1057.64 650.432C1062.09 650.432 1065.69 654.109 1065.69 658.645V658.645C1065.69 663.181 1069.3 666.858 1073.75 666.858H1150.84C1155.92 666.858 1160.04 662.655 1160.04 657.472V587.075C1160.04 581.891 1155.92 577.688 1150.84 577.688H1047.28H976.727C974.725 577.688 972.778 578.354 971.18 579.584L864.539 661.695C862.235 663.468 860.881 666.242 860.881 669.185V697.363C860.881 702.547 865.002 706.749 870.086 706.749H955.232H1037.68C1046.57 706.749 1050.3 718.317 1043.14 723.692L1024.4 737.771C1022.82 738.96 1020.91 739.601 1018.94 739.601H963.286C958.838 739.601 955.232 735.924 955.232 731.388V731.388C955.232 726.852 951.626 723.175 947.178 723.175H870.086C865.002 723.175 860.881 727.378 860.881 732.561V802.958C860.881 808.142 865.002 812.345 870.086 812.345H973.642H1044.2Z" fill="#F5F5F5"></path><path d="M721.957 899.167C724 899.167 725.984 898.474 727.598 897.198L816.62 826.801C823.551 821.32 819.75 809.997 810.979 809.997H724.443C722.626 809.997 720.85 810.546 719.338 811.573L718.205 812.343L702.249 824.546C700.656 825.765 698.718 826.423 696.726 826.423H642.263C637.18 826.423 633.058 822.221 633.058 817.037V774.978C633.058 772.002 634.442 769.203 636.788 767.433L674.342 739.095C675.927 737.9 677.846 737.254 679.818 737.254H734.313C739.397 737.254 743.518 741.456 743.518 746.64V760.861C743.518 766.044 739.397 770.247 734.313 770.247H685.558C683.595 770.247 681.682 770.887 680.101 772.075L674.037 776.627C666.881 782 670.608 793.572 679.495 793.572H743.518H828.665C833.748 793.572 837.87 789.369 837.87 784.185V673.897C837.87 668.713 833.748 664.511 828.665 664.511H725.108H654.553C652.551 664.511 650.604 665.176 649.006 666.406L542.365 748.517C540.061 750.291 538.707 753.064 538.707 756.008V889.781C538.707 894.964 542.828 899.167 547.912 899.167H651.468H721.957Z" fill="#F5F5F5"></path><path fill-rule="evenodd" clip-rule="evenodd" d="M332.377 748.943C330.375 748.943 328.428 749.608 326.83 750.839L220.189 832.965C217.885 834.739 216.531 837.513 216.531 840.457L216.531 974.255C216.531 979.44 220.652 983.644 225.736 983.644L399.847 983.644C401.849 983.644 403.796 982.978 405.394 981.748L512.035 899.621C514.339 897.847 515.693 895.074 515.693 892.129L515.693 748.943L515.693 680.956C515.693 673.206 507.006 668.794 500.941 673.464L405.394 747.047C403.796 748.277 401.849 748.943 399.847 748.943L332.377 748.943ZM310.882 859.302C310.882 856.319 312.272 853.514 314.627 851.744L352.171 823.53C353.752 822.341 355.666 821.7 357.631 821.7L412.137 821.7C417.221 821.7 421.342 825.903 421.342 831.088L421.342 873.284C421.342 876.267 419.952 879.073 417.598 880.842L380.054 909.056C378.472 910.245 376.558 910.886 374.593 910.886L320.087 910.886C315.003 910.886 310.882 906.683 310.882 901.498L310.882 859.302Z" fill="#F5F5F5"></path><path fill-rule="evenodd" clip-rule="evenodd" d="M1758.37 364.17C1758.37 367.114 1757.02 369.887 1754.71 371.661L1648.07 453.771C1646.47 455.001 1644.53 455.667 1642.52 455.667H1571.97H1468.41C1463.33 455.667 1459.21 451.464 1459.21 446.281V312.508C1459.21 309.564 1460.56 306.791 1462.87 305.017L1569.51 222.906C1571.1 221.676 1573.05 221.011 1575.05 221.011H1645.61H1749.16C1754.25 221.011 1758.37 225.213 1758.37 230.397V364.17ZM1664.02 345.329C1664.02 348.311 1662.63 351.116 1660.27 352.885L1622.73 381.094C1621.15 382.282 1619.23 382.923 1617.27 382.923H1562.76C1557.68 382.923 1553.56 378.721 1553.56 373.537V331.349C1553.56 328.367 1554.95 325.562 1557.3 323.792L1594.85 295.584C1596.43 294.395 1598.34 293.754 1600.31 293.754H1654.81C1659.9 293.754 1664.02 297.956 1664.02 303.14V345.329Z" fill="#F5F5F5"></path><path d="M1432.46 457.651C1434.81 455.869 1436.19 453.051 1436.19 450.056V336.711V306.003V291.83V237.349C1436.19 229.591 1427.59 225.139 1421.51 229.754L1339.79 291.83L1324.86 303.17C1322.51 304.952 1321.13 307.77 1321.13 310.765V454.818V523.471C1321.13 531.229 1329.74 535.681 1335.81 531.066L1432.46 457.651Z" fill="#F5F5F5"></path><path fill-rule="evenodd" clip-rule="evenodd" d="M1298.12 450.992C1298.12 453.936 1296.77 456.709 1294.46 458.483L1187.82 540.593C1186.22 541.824 1184.28 542.489 1182.27 542.489H1111.72H1008.16C1003.08 542.489 998.957 538.287 998.957 533.103V399.33C998.957 396.386 1000.31 393.613 1002.62 391.839L1109.26 309.729C1110.85 308.499 1112.8 307.833 1114.8 307.833H1185.36H1288.91C1294 307.833 1298.12 312.035 1298.12 317.219V450.992ZM1203.77 432.151C1203.77 435.133 1202.38 437.938 1200.02 439.707L1162.48 467.916C1160.9 469.104 1158.98 469.746 1157.02 469.746H1102.51C1097.43 469.746 1093.31 465.543 1093.31 460.359V418.171C1093.31 415.189 1094.7 412.384 1097.05 410.615L1134.6 382.406C1136.18 381.218 1138.09 380.576 1140.06 380.576H1194.56C1199.65 380.576 1203.77 384.779 1203.77 389.963V432.151Z" fill="#F5F5F5"></path><path fill-rule="evenodd" clip-rule="evenodd" d="M860.098 629.312C862.099 629.312 864.047 628.647 865.644 627.417L972.286 545.306C974.59 543.532 975.944 540.759 975.944 537.816V533.103C975.944 527.919 971.823 523.717 966.739 523.717H884.618C882.653 523.717 880.739 524.358 879.157 525.547L840.304 554.739C838.722 555.928 836.809 556.569 834.844 556.569H780.338C775.254 556.569 771.133 552.367 771.133 547.183V504.994C771.133 502.012 772.522 499.207 774.877 497.438L812.421 469.229C814.003 468.041 815.916 467.4 817.881 467.4H873.538C877.986 467.4 881.593 471.077 881.593 475.613V475.613C881.593 480.148 885.199 483.826 889.647 483.826H966.739C971.823 483.826 975.944 479.623 975.944 474.439V404.042C975.944 398.859 971.823 394.656 966.739 394.656H863.183H792.628C790.626 394.656 788.678 395.322 787.081 396.552L680.439 478.662C678.136 480.436 676.781 483.209 676.781 486.153V619.926C676.781 625.11 680.902 629.312 685.986 629.312H789.543H860.098Z" fill="#F5F5F5"></path><path fill-rule="evenodd" clip-rule="evenodd" d="M650.04 631.296C652.386 629.514 653.77 626.696 653.77 623.701V510.356V489.097C653.77 483.878 649.648 479.648 644.565 479.648H547.912C542.828 479.648 538.707 483.878 538.707 489.097V628.463V697.117C538.707 704.875 547.312 709.327 553.388 704.712L650.04 631.296ZM579.804 448.431C572.669 453.851 576.404 465.475 585.28 465.475H644.565C649.648 465.475 653.77 461.245 653.77 456.027V410.995C653.77 403.237 645.165 398.785 639.089 403.4L579.804 448.431Z" fill="#F5F5F5"></path><path fill-rule="evenodd" clip-rule="evenodd" d="M399.847 713.833C401.849 713.833 403.797 713.167 405.394 711.937L512.036 629.811C514.339 628.036 515.694 625.263 515.694 622.318V488.52C515.694 483.335 511.573 479.132 506.489 479.132H332.377C330.376 479.132 328.428 479.797 326.831 481.028L220.189 563.154C217.886 564.928 216.531 567.702 216.531 570.646V713.833V781.819C216.531 789.57 225.219 793.982 231.283 789.311L326.831 715.729C328.428 714.498 330.376 713.833 332.377 713.833H399.847ZM421.342 603.473C421.342 606.456 419.953 609.262 417.598 611.031L380.054 639.245C378.472 640.434 376.559 641.075 374.594 641.075H320.087C315.004 641.075 310.882 636.872 310.882 631.687V589.491C310.882 586.508 312.272 583.703 314.627 581.933L352.171 553.719C353.753 552.53 355.666 551.889 357.631 551.889H412.137C417.221 551.889 421.342 556.092 421.342 561.277V603.473Z" fill="#F5F5F5"></path><path d="M1813.6 511.983V605.754C1813.6 642.574 1854.89 663.523 1883.69 641.317L1959.63 582.767C1970.22 574.604 1976.58 561.994 1976.97 548.511L1976.99 547.205V413.428C1976.99 388.804 1957.41 368.843 1933.26 368.843V345.377C1970.12 345.377 2000 375.845 2000 413.428V547.205C2000 568.531 1990.2 588.623 1973.51 601.485L1897.57 660.034C1860.71 688.458 1810.43 670.558 1795.17 630.895C1794.34 667.746 1764.79 697.362 1728.45 697.362H1639.57L1639.54 697.391L1544.66 770.442C1533.08 779.36 1518.96 784.184 1504.45 784.184H1320.71L1320.17 784.617L1319.8 784.485L1231.96 850.768C1195.27 878.454 1145.85 860.83 1130.37 821.876L1084.41 857.265C1072.83 866.183 1058.71 871.007 1044.2 871.007H858.683L857.211 873.528L853.791 871.587C853.164 872.119 852.526 872.643 851.876 873.157L762.853 943.553C751.152 952.807 736.765 957.83 721.957 957.83H531.926L440.063 1028.56C428.48 1037.48 414.361 1042.31 399.847 1042.31H225.736C188.879 1042.31 159 1011.84 159 974.256V570.629C159 549.288 168.818 529.182 185.521 516.321L292.162 434.21C303.745 425.292 317.864 420.467 332.378 420.467V443.933L331.486 443.942C322.292 444.133 313.382 447.277 306.031 452.937L199.389 535.048L198.375 535.852C188.049 544.298 182.012 557.084 182.012 570.629V974.256C182.012 998.879 201.588 1018.84 225.736 1018.84H399.847C409.059 1018.84 418.029 1015.87 425.48 1010.38L426.194 1009.84L524.216 934.364H721.957L722.865 934.355C731.943 934.163 740.738 931.093 748.028 925.572L748.751 925.012L837.774 854.616C838.679 853.9 839.544 853.162 840.372 852.406L846.101 847.542H1044.2C1053.41 847.542 1062.38 844.574 1069.83 839.076L1070.55 838.538L1148.54 778.483V796.066C1148.54 832.102 1188.14 853.021 1216.91 832.896L1218.27 831.906L1312.61 760.719H1504.45C1513.66 760.719 1522.63 757.752 1530.08 752.254L1530.8 751.715L1631.86 673.896H1728.45C1752.6 673.896 1772.18 653.935 1772.18 629.311V527.518L1792.76 511.983H1813.6ZM792.628 359.457L791.736 359.466C782.542 359.657 773.632 362.801 766.281 368.46L688.287 428.511V410.932C688.287 374.325 647.414 353.317 618.556 375.092L559.269 419.826L524.658 444.082L507.206 443.94C506.967 443.936 506.728 443.933 506.489 443.933H332.378V420.467H506.489C506.789 420.467 507.09 420.47 507.39 420.474H507.392L517.597 420.557L545.916 400.712L604.867 356.23C641.557 328.545 690.969 346.168 706.453 385.12L752.412 349.734C763.995 340.816 778.114 335.991 792.628 335.991V359.457ZM1792.89 230.396C1792.89 205.773 1773.31 185.811 1749.16 185.811V162.346C1786.02 162.346 1815.9 192.813 1815.9 230.396V340.157L1819.79 339.197L1818.97 345.377H1933.26V368.843H1792.89V230.396ZM1114.8 272.634L1113.91 272.643C1104.72 272.834 1095.81 275.978 1088.46 281.638L987.387 359.457H792.628V335.991H979.677L979.715 335.961L1074.59 262.911C1086.17 253.993 1100.29 249.168 1114.8 249.168V272.634ZM1575.05 185.811L1574.16 185.82C1564.97 186.012 1556.06 189.155 1548.71 194.815L1470.71 254.865V237.287C1470.71 200.679 1429.84 179.671 1400.98 201.447L1306.52 272.723L1289.36 272.636C1289.21 272.635 1289.06 272.634 1288.91 272.634H1114.8V249.168H1288.91C1289.1 249.168 1289.29 249.169 1289.48 249.171L1298.48 249.214L1299.08 248.735L1299.45 248.866L1387.29 182.585C1423.98 154.9 1473.39 172.522 1488.88 211.475L1534.84 176.088C1546.42 167.17 1560.54 162.346 1575.05 162.346V185.811ZM1749.16 162.346V185.811H1575.05V162.346H1749.16Z" fill="url(#paint1_linear_521_513)"></path><defs><filter id="filter0_f_521_513" x="59" y="62.3457" width="2041" height="1079.96" filterUnits="userSpaceOnUse" color-interpolation-filters="sRGB"></filter><linearGradient id="paint0_linear_521_513" x1="896.273" y1="472.631" x2="945.375" y2="714.945" gradientUnits="userSpaceOnUse"><stop stop-color="#00FF4A"></stop><stop offset="1" stop-color="#C900FB"></stop></linearGradient><linearGradient id="paint1_linear_521_513" x1="906.906" y1="455.666" x2="986.809" y2="721.154" gradientUnits="userSpaceOnUse"><stop stop-color="#2DB354"></stop><stop offset="1" stop-color="#905FDA"></stop></linearGradient></defs></svg>