<svg xmlns="http://www.w3.org/2000/svg" width="196" height="94" viewBox="0 0 196 94" fill="none"><path fill-rule="evenodd" clip-rule="evenodd" d="M178.935 34.645C178.935 34.1015 178.498 33.6612 177.959 33.6615L172.187 33.6653C171.978 33.6654 171.775 33.7332 171.607 33.8587L167.631 36.8324C167.383 37.0182 167.237 37.3118 167.237 37.6238L167.245 49.6606C167.245 50.2041 166.809 50.645 166.27 50.6454L158.445 50.6505L158.227 50.6506C157.688 50.651 157.251 50.2107 157.251 49.6672L157.242 35.6413C157.242 35.3327 157.385 35.0419 157.629 34.8557L167.808 27.0866C168.221 26.7719 168.764 26.9045 169.026 27.2776C169.122 27.4145 169.18 27.5837 169.18 27.7751C169.181 28.4836 169.98 28.8904 170.544 28.4697L173.553 26.2293C173.72 26.1045 173.923 26.0372 174.131 26.037L187.948 26.028C188.487 26.0276 188.923 26.468 188.924 27.0115L188.933 41.0377C188.933 41.3461 188.79 41.6368 188.546 41.8229L180.507 47.967C179.865 48.4576 178.944 47.9957 178.943 47.183L178.935 34.645ZM170.6 23.8423C169.905 23.4343 169.105 23.21 168.289 23.2131C167.374 23.2165 166.438 23.5059 165.603 24.1429L156.014 31.4616L155.424 31.912C154.395 32.6969 153.743 33.8737 153.611 35.1537C153.594 35.3156 153.585 35.4791 153.586 35.6437L153.591 44.5029L153.593 46.2251L153.595 49.6695C153.595 50.2612 153.704 50.8271 153.903 51.348C154.364 52.5532 155.305 53.5173 156.489 54.0012C157.026 54.2208 157.614 54.3415 158.229 54.3411L166.273 54.3358C168.831 54.3342 170.903 52.2399 170.901 49.6582L170.894 38.9855L173.074 37.3552L175.28 37.3538L175.287 47.1854C175.289 51.0459 179.664 53.2396 182.714 50.9093L190.753 44.7652C191.911 43.8809 192.59 42.5002 192.589 41.0353L192.58 27.0091C192.578 24.4274 190.503 22.3358 187.946 22.3375L174.129 22.3466C173.772 22.3468 173.42 22.3885 173.077 22.4694C173.063 22.4726 173.05 22.4759 173.036 22.4793C172.442 22.6252 171.879 22.8891 171.382 23.2597L170.6 23.8423Z" fill="#09090B"></path><path fill-rule="evenodd" clip-rule="evenodd" d="M156.632 53.8922L156.489 54.0012L156.042 54.3425L145.342 62.5087C144.539 63.1218 143.559 63.4539 142.552 63.4546L124.11 63.4666C123.574 63.467 123.059 63.3753 122.579 63.2063C121.357 62.7755 120.369 61.8422 119.857 60.6517C119.612 60.0826 119.476 59.4549 119.476 58.7951L119.467 44.7693C119.466 44.6876 119.469 44.6063 119.473 44.5252C119.499 44.0126 119.608 43.5133 119.792 43.0454C119.999 42.5177 120.3 42.03 120.683 41.6081C120.871 41.401 121.079 41.2098 121.305 41.0375L124.338 38.7227L132.594 32.421C133.082 32.0486 133.635 31.7798 134.22 31.6261C134.598 31.5267 134.989 31.4754 135.385 31.4751L138.899 31.4728L153.827 31.463C155.997 31.4616 157.819 32.9671 158.323 35.0004C158.413 35.3635 158.461 35.7434 158.461 36.1346L158.466 43.5156C158.466 44.1709 158.333 44.7948 158.092 45.361C158.334 45.927 158.468 46.5507 158.468 47.206L158.47 50.1604C158.47 50.325 158.462 50.4886 158.445 50.6505C158.312 51.9304 157.661 53.1073 156.632 53.8922ZM154.812 47.2084C154.812 46.6649 154.375 46.2246 153.836 46.2249L153.593 46.2251L139.943 46.234C139.695 46.2342 139.47 46.3273 139.298 46.4805C139.095 46.661 138.968 46.9249 138.968 47.2188L138.968 47.7109C138.969 47.9369 139.044 48.145 139.171 48.3111C139.209 48.361 139.252 48.4071 139.299 48.4488C139.318 48.4659 139.338 48.4823 139.359 48.4978C139.375 48.5103 139.392 48.5223 139.409 48.5337C139.543 48.6221 139.699 48.6783 139.867 48.6914C139.893 48.6934 139.918 48.6944 139.944 48.6944L141.852 48.6931C141.963 48.693 142.066 48.7097 142.161 48.7402C142.659 48.9004 142.92 49.4419 142.801 49.9227C142.751 50.1271 142.631 50.3206 142.432 50.4691L140.448 51.9466C140.436 51.9558 140.423 51.9647 140.41 51.9732C140.272 52.0666 140.112 52.1225 139.946 52.1358C139.921 52.1378 139.895 52.1388 139.87 52.1389L134.096 52.1426C133.558 52.143 133.121 51.7027 133.121 51.1591L133.118 46.7358C133.118 46.4231 133.265 46.1289 133.514 45.9433L137.489 42.9831C137.656 42.8583 137.859 42.791 138.067 42.7908L143.962 42.787C144.433 42.7867 144.816 43.1719 144.816 43.6475C144.816 44.1231 145.198 44.5084 145.67 44.5081L153.591 44.5029L153.835 44.5027C154.374 44.5024 154.81 44.0615 154.809 43.518L154.805 36.137C154.804 35.5935 154.367 35.1532 153.829 35.1535L153.611 35.1537L136.18 35.1651L135.387 35.1656C135.175 35.1657 134.969 35.2356 134.8 35.3647L124.766 43.0222L124.11 43.5232L123.51 43.9812C123.266 44.1674 123.123 44.4582 123.123 44.7669L123.132 58.7927C123.132 59.3362 123.569 59.7765 124.108 59.7762L124.345 59.776L142.55 59.7641C142.762 59.7639 142.968 59.694 143.137 59.565L153.903 51.348L154.427 50.9484C154.671 50.7623 154.814 50.4714 154.814 50.1628L154.812 47.2084Z" fill="#09090B"></path><path fill-rule="evenodd" clip-rule="evenodd" d="M124.351 59.526C124.351 59.6097 124.349 59.693 124.345 59.776C124.274 61.1208 123.632 62.3726 122.579 63.2063C122.546 63.2329 122.512 63.2591 122.477 63.2849L122.233 63.4679L112.245 70.9383C109.19 73.2234 104.859 71.0237 104.856 67.1855L104.852 60.7176L104.848 55.3602L104.847 53.638L104.842 45.5189C104.842 45.0932 104.898 44.6807 105.003 44.2887C105.491 42.4727 107.037 41.0956 108.932 40.8729C108.98 40.682 109.042 40.4932 109.116 40.3077C109.415 39.563 109.925 38.8716 110.672 38.313L116.948 33.6186C117.603 33.1289 118.316 32.8452 119.033 32.7394C120.554 32.5147 122.091 33.0919 123.116 34.203C123.861 35.0111 124.336 36.1016 124.337 37.3714L124.338 38.7227L124.34 42.0617C124.34 42.572 124.259 43.0633 124.11 43.5232C124.081 43.6114 124.05 43.6984 124.016 43.7842C124.226 44.317 124.342 44.898 124.342 45.5062L124.351 59.526ZM120.695 59.5284C120.695 59.8404 120.549 60.134 120.3 60.3197L119.857 60.6517L110.068 67.9731C109.425 68.4542 108.513 67.9911 108.512 67.1831L108.509 62.4566L108.498 45.5165C108.498 44.973 108.934 44.5321 109.473 44.5318L109.659 44.5317L119.473 44.5252L119.71 44.5251C120.249 44.5247 120.685 44.965 120.686 45.5086L120.695 59.5284ZM120.68 37.3738C120.68 36.5657 119.768 36.1026 119.125 36.5837L112.849 41.2782C112.479 41.5549 112.385 41.9866 112.496 42.3549C112.612 42.7384 112.95 43.0533 113.43 43.053L119.709 43.0489C119.737 43.0489 119.765 43.0477 119.792 43.0454C120.292 43.0027 120.684 42.5796 120.684 42.0641L120.683 41.6081L120.683 41.5586L120.68 37.3738Z" fill="#09090B"></path><path fill-rule="evenodd" clip-rule="evenodd" d="M107.888 63.0271L96.5982 71.6437C95.7948 72.2569 94.8152 72.589 93.808 72.5897L75.366 72.6017C74.6506 72.6022 73.9729 72.4389 73.3678 72.1469C73.2832 72.1061 73.2 72.0627 73.1183 72.0169C71.6959 71.2199 70.7329 69.6887 70.7317 67.9302L70.7311 66.9461L70.7269 60.5492C70.7264 59.8939 70.8596 59.27 71.1005 58.7037C70.8589 58.1378 70.7249 57.5141 70.7245 56.8588L70.7225 53.9044C70.7224 53.7398 70.7309 53.5762 70.7477 53.4143C70.8804 52.1344 71.5321 50.9575 72.5605 50.1726L73.1507 49.7222L83.8504 41.5561C84.3384 41.1837 84.8915 40.9149 85.4762 40.7612C85.8541 40.6618 86.2452 40.6105 86.6406 40.6102L90.1883 40.6079L105.083 40.5981C107.392 40.5966 109.307 42.3009 109.659 44.5317C109.697 44.7721 109.717 45.0186 109.717 45.2697L109.722 52.6507C109.722 53.306 109.589 53.9299 109.348 54.4962C109.59 55.0621 109.724 55.6858 109.724 56.3411L109.726 59.2954C109.727 60.4757 109.286 61.6013 108.509 62.4566C108.321 62.6636 108.114 62.8548 107.888 63.0271ZM106.068 56.3435C106.068 55.8 105.631 55.3597 105.092 55.3601L104.848 55.3602L87.3402 55.3717C86.6469 55.3721 86.2496 54.7142 86.3912 54.1421C86.4418 53.9377 86.5613 53.7442 86.7607 53.5957L88.7446 52.1181C88.7569 52.1089 88.7694 52.1001 88.7821 52.0915C88.9419 51.9838 89.13 51.9259 89.3229 51.9258L95.2181 51.9221C95.6893 51.9218 96.0715 52.307 96.0718 52.7826C96.0721 53.2582 96.4543 53.6435 96.9255 53.6432L104.847 53.638L105.091 53.6378C105.63 53.6375 106.066 53.1966 106.065 52.6531L106.061 45.2721C106.06 44.7286 105.623 44.2883 105.085 44.2886L105.003 44.2887L87.7854 44.3L86.643 44.3007C86.4309 44.3008 86.2247 44.3708 86.0556 44.4998L74.7657 53.1164C74.5218 53.3025 74.3786 53.5933 74.3788 53.902L74.3807 56.8564C74.3811 57.3999 74.8179 57.8402 75.3563 57.8398L75.6001 57.8397L93.1083 57.8282C93.8016 57.8278 94.1989 58.4857 94.0573 59.0578C94.0067 59.2622 93.8872 59.4557 93.6878 59.6042L91.7039 61.0817C91.6916 61.0909 91.6791 61.0998 91.6664 61.1083C91.5066 61.216 91.3185 61.2738 91.1257 61.274L85.2305 61.2778C84.7593 61.2781 84.3771 60.8929 84.3768 60.4173C84.3765 59.9417 83.9943 59.5564 83.5231 59.5567L75.6012 59.5619L75.3575 59.5621C74.819 59.5624 74.3828 60.0033 74.3831 60.5468L74.388 67.9278C74.3882 68.2318 74.5249 68.5035 74.7396 68.6839C74.9088 68.826 75.1263 68.9114 75.3636 68.9113L93.8056 68.8992C94.0176 68.8991 94.2238 68.8291 94.393 68.7L104.852 60.7176L105.683 60.0834C105.927 59.8973 106.07 59.6064 106.07 59.2978L106.068 56.3435Z" fill="#09090B"></path><path fill-rule="evenodd" clip-rule="evenodd" d="M55.1747 66.9562C54.9102 66.9564 54.6888 66.8608 54.5239 66.7106C54.361 66.5623 54.2533 66.3607 54.2139 66.1457C54.1513 65.8041 54.261 65.4289 54.5954 65.18L55.2373 64.7023C55.4048 64.5777 55.6073 64.5104 55.8153 64.5103L60.9795 64.5069C61.5179 64.5065 61.9542 64.0656 61.9538 63.5221L61.9528 62.0312C61.9525 61.4876 61.5157 61.0473 60.9772 61.0477L55.205 61.0515C54.9962 61.0516 54.7929 61.1194 54.6251 61.2449L50.6493 64.2186C50.401 64.4043 50.2546 64.6979 50.2548 65.0099L50.2577 69.4198C50.258 69.9633 50.6948 70.4036 51.2333 70.4033L57.0021 70.3995C57.213 70.3994 57.4183 70.3301 57.5869 70.2023L59.2761 68.9218L59.3961 68.8409C59.5561 68.7331 59.7443 68.6755 59.9367 68.6753L69.1027 68.6693C70.0318 68.6687 70.4351 69.8556 69.7014 70.4308L60.2769 77.8179C60.1061 77.9518 59.8959 78.0246 59.6796 78.0247L41.4306 78.0367L41.2446 78.0368C40.7061 78.0371 40.2693 77.5968 40.2689 77.0533L40.2597 63.0275C40.2595 62.7189 40.4028 62.428 40.6467 62.2419L41.4776 61.6077L41.9033 61.2828L51.9366 53.6254C52.1057 53.4963 52.3119 53.4264 52.524 53.4262L53.3173 53.4257L70.7477 53.4143L70.966 53.4142C71.5044 53.4138 71.9412 53.8541 71.9416 54.3976L71.9492 65.9611C71.9495 66.5046 71.5133 66.9455 70.9748 66.9459L70.7311 66.9461L55.1747 66.9562ZM73.7437 69.7088C74.1254 69.4209 74.4617 69.0749 74.7396 68.6839C75.2852 67.9165 75.6061 66.9754 75.6054 65.9587L75.6012 59.5619L75.6001 57.8397L75.5978 54.3952C75.5976 54.0041 75.5497 53.6241 75.4598 53.261C74.9563 51.2278 73.1337 49.7223 70.9635 49.7237L56.0361 49.7335L52.5215 49.7358C52.1262 49.736 51.735 49.7873 51.3572 49.8867C50.7724 50.0404 50.2194 50.3092 49.7314 50.6817L41.4745 56.9833L38.4415 59.2982C37.283 60.1823 36.6025 61.5639 36.6035 63.0299L36.6127 77.0557C36.6139 78.9364 37.7153 80.5569 39.302 81.2977C39.8935 81.5738 40.5525 81.7277 41.247 81.7273L59.682 81.7152C60.7096 81.7145 61.7078 81.3689 62.5195 80.7327L71.9439 73.3456C72.0397 73.2705 72.1314 73.1933 72.219 73.114C72.3984 72.9518 72.561 72.7811 72.7073 72.6035C72.8624 72.4151 72.9992 72.219 73.1183 72.0169C73.5429 71.2962 73.742 70.4994 73.7437 69.7088Z" fill="#09090B"></path><path fill-rule="evenodd" clip-rule="evenodd" d="M4.3223 68.1777L15.6122 59.5612C16.4156 58.948 17.3951 58.6159 18.4024 58.6152L24.6502 58.6112L34.0488 51.4381C36.1294 49.8502 38.8256 50.3668 40.3298 52.0809C41.0305 52.8793 41.4725 53.9374 41.4733 55.1637L41.4745 56.9833L41.4776 61.6077L41.4878 77.3006C41.488 77.549 41.4686 77.7951 41.4306 78.0367C41.2444 79.2206 40.612 80.298 39.6498 81.0323L39.302 81.2977L38.7371 81.7289L28.36 89.6488C27.5566 90.262 26.577 90.594 25.5698 90.5947L7.12779 90.6068C4.57002 90.6084 2.49517 88.5169 2.49348 85.9352L2.4843 71.9094C2.48355 70.7688 2.8953 69.6793 3.62375 68.8354C3.83157 68.5947 4.06516 68.3739 4.3223 68.1777Z" fill="#09090B"></path><path fill-rule="evenodd" clip-rule="evenodd" d="M171.239 25.5889L169.026 27.2776L159.949 34.2054C159.461 34.5779 158.908 34.8466 158.323 35.0004C157.945 35.0997 157.554 35.1511 157.158 35.1513L153.611 35.1537L138.717 35.1634C136.546 35.1648 134.724 33.6593 134.22 31.6261C134.13 31.263 134.082 30.883 134.082 30.4919L134.073 16.466C134.072 15.2857 134.513 14.1602 135.29 13.3048C135.478 13.0978 135.685 12.9066 135.911 12.7343L147.201 4.1178C148.004 3.50464 148.984 3.17256 149.991 3.1719L168.433 3.15982C170.991 3.15814 173.066 5.24968 173.067 7.83139L173.077 21.8572C173.077 22.0218 173.068 22.1854 173.051 22.3473C173.047 22.3914 173.042 22.4354 173.036 22.4793C172.873 23.7079 172.232 24.8311 171.239 25.5889ZM155.768 18.1761L153.557 18.1775L151.381 19.7977L151.382 20.1472L153.593 20.1457L155.768 18.5255L155.768 18.1761ZM169.033 22.6452C169.277 22.4591 169.421 22.1682 169.42 21.8596L169.411 7.83378C169.411 7.29026 168.974 6.84994 168.435 6.85029L149.993 6.86238C149.781 6.86251 149.575 6.93243 149.406 7.06151L138.947 15.0439L138.116 15.678C137.872 15.8642 137.729 16.155 137.729 16.4636L137.738 30.4895C137.739 31.033 138.176 31.4733 138.714 31.4729L138.899 31.4728L156.014 31.4616L157.156 31.4609C157.368 31.4607 157.574 31.3908 157.743 31.2617L168.289 23.2131L169.033 22.6452ZM159.029 20.6832C159.278 20.4975 159.425 20.2034 159.425 19.8907L159.422 15.4673C159.422 14.9238 158.985 14.4835 158.447 14.4838L152.673 14.4876C152.465 14.4877 152.263 14.5551 152.095 14.6798L148.12 17.64C147.871 17.8257 147.724 18.1199 147.724 18.4326L147.727 22.8559C147.728 23.3994 148.164 23.8398 148.703 23.8394L154.476 23.8356C154.684 23.8355 154.887 23.7681 155.054 23.6434L159.029 20.6832Z" fill="#09090B"></path><path fill-rule="evenodd" clip-rule="evenodd" d="M138.957 30.7307C138.958 30.9813 138.938 31.2293 138.899 31.4728C138.709 32.6696 138.064 33.7565 137.083 34.4896L136.18 35.1651L126.851 42.143C126.196 42.6326 125.483 42.9164 124.766 43.0222C123.245 43.2468 121.708 42.6696 120.683 41.5586C119.938 40.7505 119.463 39.66 119.462 38.3902L119.461 37.0389L119.458 32.4145L119.448 16.2355C119.448 16.1519 119.45 16.0686 119.454 15.9856C119.525 14.6407 120.167 13.389 121.22 12.5552C121.253 12.5286 121.287 12.5024 121.322 12.4767L121.554 12.3031L131.554 4.82331C134.61 2.53815 138.94 4.73786 138.943 8.57611L138.947 15.0439L138.957 30.7307ZM135.301 30.7331C135.301 31.0451 135.155 31.3387 134.907 31.5245L124.674 39.1778C124.031 39.6589 123.119 39.1958 123.119 38.3878L123.116 34.203L123.116 34.1535L123.104 16.2332C123.104 15.9212 123.25 15.6276 123.499 15.4418L123.942 15.1099L133.731 7.78844C134.374 7.30736 135.286 7.77045 135.287 8.57851L135.29 13.3048L135.301 30.7331Z" fill="#09090B"></path><path fill-rule="evenodd" clip-rule="evenodd" d="M122.495 34.724L119.461 37.0389L112.496 42.3549L111.205 43.3405C110.401 43.9537 109.422 44.2858 108.414 44.2864L105.003 44.2887L89.9725 44.2985C87.8023 44.2999 85.9797 42.7944 85.4762 40.7612C85.3863 40.3981 85.3384 40.0181 85.3382 39.627L85.3375 38.6428L85.3348 34.4603L85.329 25.6012C85.3289 25.4365 85.3374 25.273 85.3541 25.1111C85.4869 23.8311 86.1386 22.6543 87.167 21.8694L87.3099 21.7603L87.7571 21.419L98.4569 13.2529C99.2603 12.6397 100.24 12.3077 101.247 12.307L119.689 12.2949C119.705 12.2949 119.721 12.295 119.736 12.2951C120.256 12.3001 120.755 12.3913 121.22 12.5552C122.442 12.9861 123.43 13.9193 123.942 15.1099C124.187 15.6789 124.323 16.3067 124.323 16.9665L124.333 30.9923C124.333 32.1726 123.892 33.2982 123.116 34.1535C122.928 34.3605 122.72 34.5517 122.495 34.724ZM107.024 27.3112L104.813 27.3126L102.637 28.9328L102.638 29.2823L104.849 29.2808L107.024 27.6606L107.024 27.3112ZM120.289 31.7803C120.533 31.5942 120.676 31.3033 120.676 30.9947L120.667 16.9689C120.667 16.4254 120.23 15.985 119.691 15.9854L119.454 15.9856L101.249 15.9975C101.037 15.9976 100.831 16.0675 100.662 16.1966L89.8957 24.4136L89.3722 24.8131C89.1283 24.9993 88.985 25.2901 88.9852 25.5988L88.9944 39.6246C88.9948 40.1681 89.4316 40.6084 89.9701 40.608L90.1883 40.6079L108.412 40.596C108.624 40.5958 108.83 40.5259 108.999 40.3968L109.116 40.3077L119.033 32.7394L119.458 32.4145L120.289 31.7803ZM110.285 29.8183C110.534 29.6326 110.681 29.3385 110.681 29.0258L110.678 24.6024C110.678 24.0589 110.241 23.6186 109.703 23.6189L103.929 23.6227C103.721 23.6228 103.519 23.6902 103.351 23.8149L99.3764 26.7751C99.1271 26.9608 98.9801 27.255 98.9803 27.5677L98.9832 31.991C98.9835 32.5345 99.4203 32.9749 99.9588 32.9745L105.732 32.9707C105.94 32.9706 106.143 32.9032 106.31 32.7785L110.285 29.8183Z" fill="#09090B"></path><path fill-rule="evenodd" clip-rule="evenodd" d="M88.3755 43.8496L87.7854 44.3L77.0856 52.4661C76.5976 52.8385 76.0446 53.1073 75.4598 53.261C75.0819 53.3604 74.6908 53.4117 74.2954 53.412L70.7477 53.4143L55.8535 53.4241C53.6832 53.4255 51.8607 51.92 51.3572 49.8867C51.2672 49.5236 51.2194 49.1437 51.2191 48.7525L51.21 34.7267C51.2098 34.4782 51.2292 34.2322 51.2672 33.9905C51.3526 33.4477 51.5318 32.9273 51.7935 32.452C51.9685 32.1343 52.1805 31.8367 52.426 31.5662C52.6141 31.3589 52.8219 31.1675 53.048 30.9949L64.3378 22.3784C65.1412 21.7653 66.1208 21.4332 67.128 21.4325L85.57 21.4205C86.1853 21.42 86.7727 21.5408 87.3099 21.7603C88.4942 22.2443 89.4352 23.2084 89.8957 24.4136C90.0947 24.9345 90.2039 25.5004 90.2043 26.092L90.2091 33.473C90.2099 34.6505 89.7792 35.7267 89.0678 36.5491C89.7803 37.3706 90.2124 38.4462 90.2132 39.6238L90.2135 40.1178C90.2136 40.2824 90.2051 40.446 90.1883 40.6079C90.0556 41.8878 89.4039 43.0647 88.3755 43.8496ZM73.3747 36.4364L70.6939 36.4381L68.5184 38.0584L68.5186 38.4078L70.7296 38.4064L73.3747 36.4364ZM76.8829 38.6484C76.6748 38.6485 76.4722 38.7159 76.3047 38.8406L72.1914 41.904C72.0239 42.0288 71.8213 42.0961 71.6131 42.0963L65.8398 42.1C65.3013 42.1004 64.8645 41.6601 64.8641 41.1166L64.8612 36.6932C64.861 36.3805 65.0081 36.0863 65.2574 35.9007L69.2321 32.9405C69.3996 32.8157 69.6022 32.7484 69.8103 32.7482L75.7055 32.7444C76.1767 32.7441 76.5589 33.1293 76.5592 33.6049C76.5595 34.0805 76.9417 34.4658 77.4129 34.4655L85.3348 34.4603L85.5785 34.4601C86.117 34.4598 86.5532 34.0189 86.5529 33.4754L86.5481 26.0944C86.5477 25.5509 86.1109 25.1106 85.5724 25.1109L85.3541 25.1111L67.1304 25.123C66.9184 25.1231 66.7122 25.1931 66.543 25.3221L55.8455 33.4865L55.2531 33.9387C55.0093 34.1248 54.866 34.4156 54.8662 34.7243L54.8754 48.7501C54.8757 49.2936 55.3126 49.7339 55.851 49.7336L56.0361 49.7335L73.1507 49.7222L74.293 49.7215C74.5051 49.7214 74.7113 49.6514 74.8804 49.5224L86.1703 40.9059C86.4142 40.7197 86.5574 40.4289 86.5572 40.1202L86.5569 39.6262C86.5566 39.0826 86.1198 38.6423 85.5813 38.6427L85.3375 38.6428L76.8829 38.6484Z" fill="#09090B"></path><path fill-rule="evenodd" clip-rule="evenodd" d="M56.0943 48.9914C56.0945 49.2419 56.0747 49.49 56.0361 49.7335C55.8463 50.9302 55.2006 52.0171 54.2204 52.7502L53.3173 53.4257L43.9879 60.4036C43.3332 60.8933 42.62 61.177 41.9033 61.2828C39.2754 61.6708 36.6013 59.6666 36.5993 56.6508L36.5851 34.9843C36.584 33.2037 37.5692 31.655 39.0199 30.8648C39.5229 30.5908 40.0817 30.408 40.6749 30.3383C40.9189 29.381 41.482 28.4761 42.4148 27.7784L48.6912 23.0839C51.7464 20.7988 56.0773 22.9985 56.0798 26.8367L56.0829 31.5271C56.0833 32.1353 55.9686 32.7164 55.7595 33.2495C55.7903 33.3275 55.8189 33.4065 55.8455 33.4865C56.0006 33.953 56.0848 34.4524 56.0851 34.9715L56.0943 48.9914ZM52.438 48.9938C52.4383 49.3057 52.2919 49.5993 52.0435 49.7851L41.811 57.4385C41.1678 57.9195 40.2561 57.4565 40.2556 56.6484L40.2414 34.9819C40.241 34.4384 40.6772 33.9975 41.2157 33.9971L41.3567 33.997L51.2672 33.9905L51.4532 33.9904C51.9917 33.9901 52.4285 34.4304 52.4289 34.9739L52.438 48.9938ZM52.4235 26.8391C52.423 26.0311 51.5113 25.568 50.868 26.0491L44.5916 30.7435C43.8362 31.3085 44.2326 32.519 45.1728 32.5183L51.4523 32.5142C51.5723 32.5142 51.6873 32.4922 51.7935 32.452C52.1528 32.3162 52.4115 31.9726 52.426 31.5662C52.4264 31.554 52.4266 31.5418 52.4266 31.5295L52.4235 26.8391Z" fill="#09090B"></path><path fill-rule="evenodd" clip-rule="evenodd" d="M39.6313 52.7386L28.3414 61.3551C27.538 61.9683 26.5585 62.3004 25.5512 62.301L19.3034 62.3051L9.90476 69.4782C7.82419 71.0661 5.128 70.5495 3.62375 68.8354C2.92311 68.037 2.48106 66.9789 2.48026 65.7526L2.46576 43.6158C2.4648 42.1497 3.14526 40.7682 4.30376 39.884L15.5936 31.2675C16.397 30.6543 17.3766 30.3223 18.3838 30.3216L36.8258 30.3095C36.8512 30.3095 36.8766 30.3097 36.9019 30.3101C37.6672 30.322 38.3876 30.5214 39.0199 30.8648C40.1964 31.5036 41.0679 32.641 41.3567 33.997C41.4242 34.3143 41.4599 34.6435 41.4601 34.9811L41.4693 49.0069C41.4701 50.1475 41.0583 51.237 40.3298 52.0809C40.122 52.3216 39.8884 52.5424 39.6313 52.7386Z" fill="#09090B"></path><path d="M2.4843 71.9094C2.48355 70.7688 2.8953 69.6793 3.62375 68.8354C2.92311 68.037 2.48106 66.9789 2.48026 65.7526L2.4843 71.9094Z" fill="#09090B"></path><path d="M40.6749 30.3383C40.9189 29.381 41.482 28.4761 42.4148 27.7784L38.7503 30.3239L40.6749 30.3383Z" fill="#09090B"></path><path d="M39.0199 30.8648C39.5229 30.5908 40.0817 30.408 40.6749 30.3383L38.7503 30.3239L36.9019 30.3101C37.6672 30.322 38.3876 30.5214 39.0199 30.8648Z" fill="#09090B"></path><path d="M51.7935 32.452C51.9685 32.1343 52.1805 31.8367 52.426 31.5662C52.4264 31.554 52.4266 31.5418 52.4266 31.5295L52.4235 26.8391C52.423 26.0311 51.5113 25.568 50.868 26.0491L44.5916 30.7435C43.8362 31.3085 44.2326 32.519 45.1728 32.5183L51.4523 32.5142C51.5723 32.5142 51.6873 32.4922 51.7935 32.452Z" fill="#09090B"></path><path d="M49.7314 50.6817C50.2194 50.3092 50.7724 50.0404 51.3572 49.8867C51.2672 49.5236 51.2194 49.1437 51.2191 48.7525L51.21 34.7267C51.2098 34.4782 51.2292 34.2322 51.2672 33.9905L41.3567 33.997C41.4242 34.3143 41.4599 34.6435 41.4601 34.9811L41.4693 49.0069C41.4701 50.1475 41.0583 51.237 40.3298 52.0809C41.0305 52.8793 41.4725 53.9374 41.4733 55.1637L41.4745 56.9833L49.7314 50.6817Z" fill="#09090B"></path><path d="M73.1507 49.7222L83.8504 41.5561C84.3384 41.1837 84.8915 40.9149 85.4762 40.7612C85.3863 40.3981 85.3384 40.0181 85.3382 39.627L85.3375 38.6428L76.8829 38.6484C76.6748 38.6485 76.4722 38.7159 76.3047 38.8406L72.1914 41.904C72.0239 42.0288 71.8213 42.0961 71.6131 42.0963L65.8398 42.1C65.3013 42.1004 64.8645 41.6601 64.8641 41.1166L64.8612 36.6932C64.861 36.3805 65.0081 36.0863 65.2574 35.9007L69.2321 32.9405C69.3996 32.8157 69.6022 32.7484 69.8103 32.7482L75.7055 32.7444C76.1767 32.7441 76.5589 33.1293 76.5592 33.6049C76.5595 34.0805 76.9417 34.4658 77.4129 34.4655L85.3348 34.4603L85.329 25.6012C85.3289 25.4365 85.3374 25.273 85.3541 25.1111L67.1304 25.123C66.9184 25.1231 66.7122 25.1931 66.543 25.3221L55.8455 33.4865C56.0006 33.953 56.0848 34.4524 56.0851 34.9715L56.0943 48.9914C56.0945 49.2419 56.0747 49.49 56.0361 49.7335L70.9635 49.7237L73.1507 49.7222Z" fill="#09090B"></path><path d="M70.6939 36.4381L73.3747 36.4364L70.7296 38.4064L68.5186 38.4078L68.5184 38.0584L70.6939 36.4381Z" fill="#09090B"></path><path fill-rule="evenodd" clip-rule="evenodd" d="M109.116 40.3077C109.415 39.563 109.925 38.8716 110.672 38.313L116.948 33.6186C117.603 33.1289 118.316 32.8452 119.033 32.7394L119.458 32.4145L119.448 16.2355C119.448 16.1519 119.45 16.0686 119.454 15.9856L101.249 15.9975C101.037 15.9976 100.831 16.0675 100.662 16.1966L89.8957 24.4136C90.0947 24.9345 90.2039 25.5004 90.2043 26.092L90.2091 33.473C90.2099 34.6505 89.7792 35.7267 89.0678 36.5491C89.7803 37.3706 90.2124 38.4462 90.2132 39.6238L90.2135 40.1178C90.2136 40.2824 90.2051 40.446 90.1883 40.6079L105.083 40.5981L108.412 40.596C108.624 40.5958 108.83 40.5259 108.999 40.3968L109.116 40.3077ZM110.285 29.8183C110.534 29.6326 110.681 29.3385 110.681 29.0258L110.678 24.6024C110.678 24.0589 110.241 23.6186 109.703 23.6189L103.929 23.6227C103.721 23.6228 103.519 23.6902 103.351 23.8149L99.3764 26.7751C99.1271 26.9608 98.9801 27.255 98.9803 27.5677L98.9832 31.991C98.9835 32.5345 99.4203 32.9749 99.9588 32.9745L105.732 32.9707C105.94 32.9706 106.143 32.9032 106.31 32.7785L110.285 29.8183Z" fill="#09090B"></path><path d="M104.813 27.3126L107.024 27.3112L107.024 27.6606L104.849 29.2808L102.638 29.2823L102.637 28.9328L104.813 27.3126Z" fill="#09090B"></path><path d="M124.338 38.7227L132.594 32.421C133.082 32.0486 133.635 31.7798 134.22 31.6261C134.13 31.263 134.082 30.883 134.082 30.4919L134.073 16.466C134.072 15.2857 134.513 14.1602 135.29 13.3048L135.287 8.57851C135.286 7.77045 134.374 7.30736 133.731 7.78844L123.942 15.1099C124.187 15.6789 124.323 16.3067 124.323 16.9665L124.333 30.9923C124.333 32.1726 123.892 33.2982 123.116 34.1535L123.116 34.203C123.861 35.0111 124.336 36.1016 124.337 37.3714L124.338 38.7227Z" fill="#09090B"></path><path fill-rule="evenodd" clip-rule="evenodd" d="M165.603 24.1429C166.438 23.5059 167.374 23.2165 168.289 23.2131L169.033 22.6452C169.277 22.4591 169.421 22.1682 169.42 21.8596L169.411 7.83378C169.411 7.29026 168.974 6.84994 168.435 6.85029L149.993 6.86238C149.781 6.86251 149.575 6.93243 149.406 7.06151L138.947 15.0439L138.957 30.7307C138.958 30.9813 138.938 31.2293 138.899 31.4728L153.827 31.463L156.014 31.4616L165.603 24.1429ZM159.029 20.6832C159.278 20.4975 159.425 20.2034 159.425 19.8907L159.422 15.4673C159.422 14.9238 158.985 14.4835 158.447 14.4838L152.673 14.4876C152.465 14.4877 152.263 14.5551 152.095 14.6798L148.12 17.64C147.871 17.8257 147.724 18.1199 147.724 18.4326L147.727 22.8559C147.728 23.3994 148.164 23.8398 148.703 23.8394L154.476 23.8356C154.684 23.8355 154.887 23.7681 155.054 23.6434L159.029 20.6832Z" fill="#09090B"></path><path d="M153.557 18.1775L155.768 18.1761L155.768 18.5255L153.593 20.1457L151.382 20.1472L151.381 19.7977L153.557 18.1775Z" fill="#09090B"></path><path d="M177.959 33.6615C178.498 33.6612 178.935 34.1015 178.935 34.645L178.943 47.183C178.944 47.9957 179.865 48.4576 180.507 47.967L188.546 41.8229C188.79 41.6368 188.933 41.3461 188.933 41.0377L188.924 27.0115C188.923 26.468 188.487 26.0276 187.948 26.028L174.131 26.037C173.923 26.0372 173.72 26.1045 173.553 26.2293L170.544 28.4697C169.98 28.8904 169.181 28.4836 169.18 27.7751C169.18 27.5837 169.122 27.4145 169.026 27.2776L159.949 34.2054C159.461 34.5779 158.908 34.8466 158.323 35.0004C158.413 35.3635 158.461 35.7434 158.461 36.1346L158.466 43.5156C158.466 44.1709 158.333 44.7948 158.092 45.361C158.334 45.927 158.468 46.5507 158.468 47.206L158.47 50.1604C158.47 50.325 158.462 50.4886 158.445 50.6505L166.27 50.6454C166.809 50.645 167.245 50.2041 167.245 49.6606L167.237 37.6238C167.237 37.3118 167.383 37.0182 167.631 36.8324L171.607 33.8587C171.775 33.7332 171.978 33.6654 172.187 33.6653L177.959 33.6615Z" fill="#09090B"></path><path d="M153.586 35.6437C153.585 35.4791 153.594 35.3156 153.611 35.1537L138.717 35.1634L136.18 35.1651L126.851 42.143C126.196 42.6326 125.483 42.9164 124.766 43.0222L124.11 43.5232C124.081 43.6114 124.05 43.6984 124.016 43.7842C124.226 44.317 124.342 44.898 124.342 45.5062L124.351 59.526C124.351 59.6097 124.349 59.693 124.345 59.776L142.55 59.7641C142.762 59.7639 142.968 59.694 143.137 59.565L153.903 51.348C153.704 50.8271 153.595 50.2612 153.595 49.6695L153.593 46.2251L139.943 46.234C139.695 46.2342 139.47 46.3273 139.298 46.4805C139.095 46.661 138.968 46.9249 138.968 47.2188L138.968 47.7109C138.969 47.9369 139.044 48.145 139.171 48.3111C139.209 48.361 139.252 48.4071 139.299 48.4488C139.318 48.4659 139.338 48.4823 139.359 48.4978C139.375 48.5103 139.392 48.5223 139.409 48.5337C139.543 48.6221 139.699 48.6783 139.867 48.6914C139.893 48.6934 139.918 48.6944 139.944 48.6944L141.852 48.6931C141.963 48.693 142.066 48.7097 142.161 48.7402C142.659 48.9004 142.92 49.4419 142.801 49.9227C142.751 50.1271 142.631 50.3206 142.432 50.4691L140.448 51.9466C140.436 51.9558 140.423 51.9647 140.41 51.9732C140.272 52.0666 140.112 52.1225 139.946 52.1358C139.921 52.1378 139.895 52.1388 139.87 52.1389L134.096 52.1426C133.558 52.143 133.121 51.7027 133.121 51.1591L133.118 46.7358C133.118 46.4231 133.265 46.1289 133.514 45.9433L137.489 42.9831C137.656 42.8583 137.859 42.791 138.067 42.7908L143.962 42.787C144.433 42.7867 144.816 43.1719 144.816 43.6475C144.816 44.1231 145.198 44.5084 145.67 44.5081L153.591 44.5029L153.586 35.6437Z" fill="#09090B"></path><path d="M119.792 43.0454C119.999 42.5177 120.3 42.03 120.683 41.6081L120.683 41.5586C119.938 40.7505 119.463 39.66 119.462 38.3902L119.461 37.0389L112.496 42.3549C112.612 42.7384 112.95 43.0533 113.43 43.053L119.709 43.0489C119.737 43.0489 119.765 43.0477 119.792 43.0454Z" fill="#09090B"></path><path d="M119.857 60.6517C119.612 60.0826 119.476 59.4549 119.476 58.7951L119.467 44.7693C119.466 44.6876 119.469 44.6063 119.473 44.5252L109.659 44.5317C109.697 44.7721 109.717 45.0186 109.717 45.2697L109.722 52.6507C109.722 53.306 109.589 53.9299 109.348 54.4962C109.59 55.0621 109.724 55.6858 109.724 56.3411L109.726 59.2954C109.727 60.4757 109.286 61.6013 108.509 62.4566L108.512 67.1831C108.513 67.9911 109.425 68.4542 110.068 67.9731L119.857 60.6517Z" fill="#09090B"></path><path d="M104.842 45.5189C104.842 45.0932 104.898 44.6807 105.003 44.2887L89.9725 44.2985L87.7854 44.3L77.0856 52.4661C76.5976 52.8385 76.0446 53.1073 75.4598 53.261C75.5497 53.6241 75.5976 54.0041 75.5978 54.3952L75.6001 57.8397L93.1083 57.8282C93.8016 57.8278 94.1989 58.4857 94.0573 59.0578C94.0067 59.2622 93.8872 59.4557 93.6878 59.6042L91.7039 61.0817C91.6916 61.0909 91.6791 61.0998 91.6664 61.1083C91.5066 61.216 91.3185 61.2738 91.1257 61.274L85.2305 61.2778C84.7593 61.2781 84.3771 60.8929 84.3768 60.4173C84.3765 59.9417 83.9943 59.5564 83.5231 59.5567L75.6012 59.5619L75.6054 65.9587C75.6061 66.9754 75.2852 67.9165 74.7396 68.6839C74.9088 68.826 75.1263 68.9114 75.3636 68.9113L93.8056 68.8992C94.0176 68.8991 94.2238 68.8291 94.393 68.7L104.852 60.7176L104.848 55.3602L87.3402 55.3717C86.6469 55.3721 86.2496 54.7142 86.3912 54.1421C86.4418 53.9377 86.5613 53.7442 86.7607 53.5957L88.7446 52.1181C88.7569 52.1089 88.7694 52.1001 88.7821 52.0915C88.9419 51.9838 89.13 51.9259 89.3229 51.9258L95.2181 51.9221C95.6893 51.9218 96.0715 52.307 96.0718 52.7826C96.0721 53.2582 96.4543 53.6435 96.9255 53.6432L104.847 53.638L104.842 45.5189Z" fill="#09090B"></path><path d="M70.7311 66.9461L70.7269 60.5492C70.7264 59.8939 70.8596 59.27 71.1005 58.7037C70.8589 58.1378 70.7249 57.5141 70.7245 56.8588L70.7225 53.9044C70.7224 53.7398 70.7309 53.5762 70.7477 53.4143L55.8535 53.4241L53.3173 53.4257L43.9879 60.4036C43.3332 60.8933 42.62 61.177 41.9033 61.2828L41.4776 61.6077L41.4878 77.3006C41.488 77.549 41.4686 77.7951 41.4306 78.0367L59.6796 78.0247C59.8959 78.0246 60.1061 77.9518 60.2769 77.8179L69.7014 70.4308C70.4351 69.8556 70.0318 68.6687 69.1027 68.6693L59.9367 68.6753C59.7443 68.6755 59.5561 68.7331 59.3961 68.8409L59.2761 68.9218L57.5869 70.2023C57.4183 70.3301 57.213 70.3994 57.0021 70.3995L51.2333 70.4033C50.6948 70.4036 50.258 69.9633 50.2577 69.4198L50.2548 65.0099C50.2546 64.6979 50.401 64.4043 50.6493 64.2186L54.6251 61.2449C54.7929 61.1194 54.9962 61.0516 55.205 61.0515L60.9772 61.0477C61.5157 61.0473 61.9525 61.4876 61.9528 62.0312L61.9538 63.5221C61.9542 64.0656 61.5179 64.5065 60.9795 64.5069L55.8153 64.5103C55.6073 64.5104 55.4048 64.5777 55.2373 64.7023L54.5954 65.18C54.261 65.4289 54.1513 65.8041 54.2139 66.1457C54.2533 66.3607 54.361 66.5623 54.5239 66.7106C54.6888 66.8608 54.9102 66.9564 55.1747 66.9562L70.7311 66.9461Z" fill="#09090B"></path><path d="M85.57 21.4205C86.1853 21.42 86.7727 21.5408 87.3099 21.7603L87.7571 21.419L85.57 21.4205Z" fill="#09090B"></path><path d="M121.22 12.5552C121.253 12.5286 121.287 12.5024 121.322 12.4767L121.554 12.3031L119.736 12.2951C120.256 12.3001 120.755 12.3913 121.22 12.5552Z" fill="#09090B"></path><path d="M173.077 22.3473L173.077 21.8572C173.077 22.0218 173.068 22.1854 173.051 22.3473L173.077 22.3473Z" fill="#09090B"></path><path d="M173.036 22.4793C173.05 22.4759 173.063 22.4726 173.077 22.4694L173.077 22.3473L173.051 22.3473C173.047 22.3914 173.042 22.4354 173.036 22.4793Z" fill="#09090B"></path><path d="M173.077 22.4694C173.42 22.3885 173.772 22.3468 174.129 22.3466L173.077 22.3473L173.077 22.4694Z" fill="#09090B"></path><path d="M158.229 54.3411C157.614 54.3415 157.026 54.2208 156.489 54.0012L156.042 54.3425L158.229 54.3411Z" fill="#09090B"></path><path d="M122.579 63.2063C122.546 63.2329 122.512 63.2591 122.477 63.2849L122.233 63.4679L124.11 63.4666C123.574 63.467 123.059 63.3753 122.579 63.2063Z" fill="#09090B"></path><path d="M73.1183 72.0169C72.9992 72.219 72.8624 72.4151 72.7073 72.6035L72.8256 72.6034L73.3678 72.1469C73.2832 72.1061 73.2 72.0627 73.1183 72.0169Z" fill="#09090B"></path><path d="M75.366 72.6017C74.6506 72.6022 73.9729 72.4389 73.3678 72.1469L72.8256 72.6034L75.366 72.6017Z" fill="#09090B"></path><path d="M72.7073 72.6035C72.561 72.7811 72.3984 72.9518 72.219 73.114L72.8256 72.6034L72.7073 72.6035Z" fill="#09090B"></path><path d="M41.247 81.7273C40.5525 81.7277 39.8935 81.5738 39.302 81.2977L38.7371 81.7289L41.247 81.7273Z" fill="#09090B"></path><path fill-rule="evenodd" clip-rule="evenodd" d="M188.933 41.0374C188.933 41.3458 188.79 41.6365 188.546 41.8227L180.507 47.9667C179.865 48.4573 178.944 47.9955 178.943 47.1828L178.938 39.5506L178.935 34.6448C178.935 34.1012 178.498 33.6609 177.959 33.6613L172.187 33.665C171.978 33.6652 171.775 33.733 171.607 33.8585L167.631 36.8322C167.383 37.0179 167.237 37.3115 167.237 37.6235L167.24 43.0175L167.245 49.6603C167.245 50.2039 166.809 50.6448 166.27 50.6451L158.227 50.6504C157.688 50.6507 157.251 50.2104 157.251 49.6669L157.242 35.6411C157.242 35.3325 157.385 35.0416 157.629 34.8555L167.808 27.0863C168.372 26.6562 169.18 27.0617 169.18 27.7749C169.181 28.4834 169.98 28.8901 170.545 28.4694L173.553 26.229C173.72 26.1043 173.923 26.0369 174.131 26.0368L176.979 26.0349L187.948 26.0277C188.487 26.0274 188.923 26.4677 188.924 27.0112L188.933 41.0374Z" fill="#9F75DF"></path><path d="M142.55 59.7638C142.762 59.7637 142.968 59.6937 143.137 59.5647L154.427 50.9481C154.671 50.762 154.814 50.4712 154.814 50.1625L154.812 47.2081C154.812 46.6646 154.375 46.2243 153.836 46.2246L144.818 46.2306L139.943 46.2337C139.404 46.2341 138.968 46.675 138.968 47.2185L138.969 47.7106C138.969 48.2541 139.406 48.6944 139.944 48.6941L141.852 48.6928C142.794 48.6922 143.189 49.9048 142.432 50.4688L140.448 51.9463C140.281 52.0711 140.078 52.1384 139.87 52.1386L134.096 52.1423C133.558 52.1427 133.121 51.7024 133.121 51.1589L133.118 46.7355C133.118 46.4228 133.265 46.1286 133.514 45.943L137.489 42.9828C137.656 42.858 137.859 42.7907 138.067 42.7905L143.962 42.7867C144.433 42.7864 144.816 43.1716 144.816 43.6472C144.816 44.1228 145.198 44.5081 145.67 44.5078L153.835 44.5024C154.374 44.5021 154.81 44.0612 154.81 43.5177L154.805 36.1367C154.804 35.5932 154.368 35.1529 153.829 35.1532L142.86 35.1604L135.387 35.1653C135.175 35.1654 134.969 35.2354 134.8 35.3644L123.51 43.9809C123.266 44.1671 123.123 44.4579 123.123 44.7666L123.132 58.7924C123.132 59.3359 123.569 59.7762 124.108 59.7759L135.076 59.7687L142.55 59.7638Z" fill="#9F75DF"></path><path fill-rule="evenodd" clip-rule="evenodd" d="M120.301 60.4783C120.549 60.2914 120.695 59.9958 120.695 59.6817L120.687 47.7978L120.686 45.3227C120.685 44.7756 120.248 44.3324 119.71 44.3327L109.473 44.3394C108.934 44.3398 108.498 44.7836 108.498 45.3307L108.508 60.189L108.513 67.3872C108.513 68.2006 109.425 68.6668 110.068 68.1825L120.301 60.4783ZM112.849 41.3102C112.093 41.879 112.49 43.0975 113.43 43.0969L119.709 43.0928C120.248 43.0924 120.684 42.6486 120.684 42.1014L120.68 37.38C120.68 36.5666 119.768 36.1004 119.125 36.5847L112.849 41.3102Z" fill="#9F75DF"></path><path d="M93.8057 68.899C94.0177 68.8989 94.2239 68.829 94.3931 68.6999L105.683 60.0833C105.927 59.8971 106.07 59.6063 106.07 59.2977L106.068 56.3434C106.068 55.7999 105.631 55.3595 105.092 55.3599L96.0736 55.3658L87.3403 55.3715C86.3991 55.3721 86.0035 54.1596 86.7608 53.5955L88.7447 52.1179C88.9122 51.9932 89.1148 51.9258 89.323 51.9257L95.2182 51.9219C95.6893 51.9216 96.0716 52.3069 96.0719 52.7825C96.0722 53.2581 96.4544 53.6433 96.9256 53.643L105.091 53.6377C105.63 53.6373 106.066 53.1964 106.066 52.6529L106.061 45.272C106.06 44.7284 105.624 44.2881 105.085 44.2885L94.1163 44.2957L86.6431 44.3006C86.431 44.3007 86.2248 44.3706 86.0557 44.4997L74.7658 53.1162C74.5219 53.3023 74.3786 53.5932 74.3788 53.9018L74.3808 56.8562C74.3811 57.3997 74.8179 57.8401 75.3564 57.8397L84.3752 57.8338L93.1083 57.8281C94.0495 57.8275 94.4452 59.0401 93.6879 59.6041L91.704 61.0816C91.5365 61.2063 91.3339 61.2737 91.1258 61.2738L85.2306 61.2777C84.7594 61.278 84.3772 60.8927 84.3769 60.4171C84.3766 59.9415 83.9943 59.5563 83.5232 59.5566L75.3576 59.5619C74.8191 59.5623 74.3828 60.0032 74.3832 60.5467L74.388 67.9276C74.3884 68.4712 74.8252 68.9115 75.3637 68.9111L86.3324 68.9039L93.8057 68.899Z" fill="#9F75DF"></path><path d="M59.6796 78.0245C59.896 78.0244 60.1061 77.9516 60.277 77.8177L69.7015 70.4306C70.4352 69.8554 70.0318 68.6685 69.1028 68.6692L59.9368 68.6752C59.7443 68.6753 59.5562 68.7329 59.3962 68.8407L59.2762 68.9216L57.587 70.2021C57.4183 70.33 57.2131 70.3992 57.0021 70.3993L51.2334 70.4031C50.6949 70.4034 50.2581 69.9631 50.2578 69.4196L50.2549 65.0098C50.2547 64.6978 50.401 64.4042 50.6494 64.2184L54.6252 61.2447C54.793 61.1192 54.9962 61.0514 55.2051 61.0513L60.9773 61.0475C61.5158 61.0471 61.9526 61.4875 61.9529 62.031L61.9539 63.5219C61.9543 64.0655 61.518 64.5063 60.9796 64.5067L55.8154 64.5101C55.6074 64.5102 55.4049 64.5775 55.2374 64.7021L54.5955 65.1798C53.8378 65.7437 54.2334 66.9567 55.1748 66.9561L61.9562 66.9516L70.9749 66.9457C71.5134 66.9454 71.9496 66.5045 71.9493 65.9609L71.9417 54.3975C71.9413 53.8539 71.5045 53.4136 70.966 53.414L59.9973 53.4211L52.5241 53.426C52.312 53.4262 52.1058 53.4961 51.9366 53.6252L40.6468 62.2417C40.4029 62.4278 40.2596 62.7187 40.2598 63.0273L40.269 77.0531C40.2694 77.5966 40.7062 78.037 41.2447 78.0366L52.2134 78.0294L59.6796 78.0245Z" fill="#9F75DF"></path><path fill-rule="evenodd" clip-rule="evenodd" d="M18.4048 62.3008C18.1927 62.301 17.9865 62.3709 17.8174 62.5L6.52751 71.1182C6.28361 71.3044 6.14036 71.5953 6.14056 71.9039L6.14975 85.9324C6.15011 86.4761 6.58692 86.9165 7.12539 86.9161L25.5674 86.904C25.7794 86.9039 25.9856 86.834 26.1548 86.7049L37.4447 78.0867C37.6886 77.9005 37.8318 77.6096 37.8316 77.3009L37.8218 62.2881L37.8171 55.1599C37.8166 54.3473 36.8961 53.8853 36.2541 54.3754L26.1387 62.097C25.9695 62.2261 25.7633 62.296 25.5513 62.2962L18.4048 62.3008ZM16.1356 73.8733C16.1354 73.5605 16.2824 73.2663 16.5317 73.0806L20.5064 70.1198C20.6739 69.995 20.8766 69.9277 21.0847 69.9275L26.858 69.9238C27.3965 69.9234 27.8333 70.3638 27.8337 70.9074L27.8366 75.3316C27.8368 75.6444 27.6897 75.9386 27.4405 76.1243L23.4657 79.0851C23.2982 79.2098 23.0956 79.2772 22.8875 79.2773L17.1141 79.2811C16.5757 79.2815 16.1389 78.8411 16.1385 78.2975L16.1356 73.8733Z" fill="#9F75DF"></path><path fill-rule="evenodd" clip-rule="evenodd" d="M169.42 21.8593C169.42 22.1679 169.277 22.4588 169.033 22.6449L157.743 31.2614C157.574 31.3905 157.368 31.4604 157.156 31.4606L149.683 31.4655L138.714 31.4726C138.176 31.473 137.739 31.0327 137.738 30.4892L137.729 16.4634C137.729 16.1547 137.872 15.8639 138.116 15.6777L149.406 7.06122C149.575 6.93213 149.781 6.86222 149.993 6.86208L157.467 6.85718L168.435 6.85C168.974 6.84965 169.411 7.28997 169.411 7.83349L169.42 21.8593ZM159.425 19.8904C159.425 20.2031 159.278 20.4972 159.029 20.6829L155.054 23.6431C154.887 23.7678 154.684 23.8352 154.476 23.8353L148.703 23.8391C148.164 23.8395 147.727 23.3992 147.727 22.8556L147.724 18.4323C147.724 18.1196 147.871 17.8254 148.12 17.6397L152.095 14.6795C152.263 14.5548 152.465 14.4874 152.673 14.4873L158.447 14.4835C158.985 14.4832 159.422 14.9235 159.422 15.467L159.425 19.8904Z" fill="#2DB354"></path><path d="M134.907 31.6834C135.155 31.4964 135.301 31.2009 135.301 30.8868L135.293 19.0028L135.291 15.7832L135.29 14.2972L135.287 8.58505C135.286 7.77163 134.374 7.30545 133.731 7.78973L125.079 14.3039L123.499 15.4939C123.25 15.6809 123.104 15.9764 123.104 16.2905L123.114 31.3941L123.119 38.5923C123.119 39.4057 124.031 39.8719 124.674 39.3876L134.907 31.6834Z" fill="#2DB354"></path><path fill-rule="evenodd" clip-rule="evenodd" d="M120.676 30.9946C120.676 31.3032 120.533 31.594 120.289 31.7802L108.999 40.3967C108.83 40.5258 108.624 40.5957 108.412 40.5958L100.939 40.6007L89.97 40.6079C89.4315 40.6083 88.9947 40.1679 88.9944 39.6244L88.9852 25.5986C88.985 25.29 89.1282 24.9991 89.3721 24.813L100.662 16.1965C100.831 16.0674 101.037 15.9975 101.249 15.9973L108.723 15.9924L119.691 15.9853C120.23 15.9849 120.667 16.4252 120.667 16.9687L120.676 30.9946ZM110.681 29.0256C110.681 29.3383 110.534 29.6325 110.285 29.8182L106.31 32.7784C106.143 32.9031 105.94 32.9705 105.732 32.9706L99.9587 32.9744C99.4203 32.9747 98.9835 32.5344 98.9831 31.9909L98.9802 27.5675C98.98 27.2548 99.127 26.9607 99.3763 26.775L103.351 23.8148C103.519 23.6901 103.721 23.6227 103.929 23.6226L109.703 23.6188C110.241 23.6184 110.678 24.0588 110.678 24.6023L110.681 29.0256Z" fill="#2DB354"></path><path fill-rule="evenodd" clip-rule="evenodd" d="M74.293 49.7213C74.505 49.7212 74.7112 49.6513 74.8804 49.5222L86.1702 40.9057C86.4141 40.7195 86.5574 40.4287 86.5572 40.12L86.5569 39.626C86.5565 39.0825 86.1197 38.6421 85.5812 38.6425L76.8829 38.6482C76.6748 38.6483 76.4721 38.7157 76.3046 38.8404L72.1913 41.9039C72.0238 42.0286 71.8212 42.0959 71.6131 42.0961L65.8397 42.0999C65.3013 42.1002 64.8644 41.6599 64.8641 41.1164L64.8612 36.693C64.861 36.3803 65.008 36.0861 65.2573 35.9005L69.232 32.9403C69.3995 32.8155 69.6021 32.7482 69.8103 32.7481L75.7055 32.7442C76.1767 32.7439 76.5589 33.1292 76.5592 33.6047C76.5595 34.0803 76.9417 34.4656 77.4129 34.4653L85.5785 34.4599C86.117 34.4596 86.5532 34.0187 86.5528 33.4752L86.548 26.0942C86.5476 25.5507 86.1108 25.1104 85.5724 25.1107L74.6036 25.1179L67.1304 25.1228C66.9183 25.123 66.7121 25.1929 66.543 25.322L55.2531 33.9385C55.0092 34.1246 54.8659 34.4155 54.8661 34.7241L54.8753 48.7499C54.8757 49.2934 55.3125 49.7337 55.851 49.7334L66.8197 49.7262L74.293 49.7213Z" fill="#2DB354"></path><path fill-rule="evenodd" clip-rule="evenodd" d="M52.0436 49.9437C52.2919 49.7567 52.4383 49.4611 52.4381 49.1471L52.4303 37.2631L52.4289 35.0341C52.4285 34.487 51.9917 34.0437 51.4532 34.0441L41.2157 34.0508C40.6772 34.0511 40.241 34.495 40.2414 35.0421L40.2509 49.6544L40.2557 56.8525C40.2562 57.6659 41.1679 58.1321 41.8111 57.6478L52.0436 49.9437ZM44.5916 30.7756C43.8362 31.3443 44.2326 32.5628 45.1727 32.5622L51.4522 32.5581C51.9907 32.5577 52.427 32.1139 52.4266 31.5668L52.4235 26.8453C52.423 26.0319 51.5112 25.5657 50.868 26.05L44.5916 30.7756Z" fill="#2DB354"></path><path fill-rule="evenodd" clip-rule="evenodd" d="M25.5488 58.6152C25.7609 58.615 25.9671 58.5451 26.1362 58.416L37.4261 49.7978C37.67 49.6117 37.8133 49.3208 37.8131 49.0121L37.8039 34.9836C37.8035 34.44 37.3667 33.9995 36.8282 33.9999L18.3862 34.012C18.1742 34.0121 17.968 34.082 17.7988 34.2112L6.50896 42.8293C6.26506 43.0155 6.12181 43.3064 6.12201 43.6151L6.13184 58.6279L6.13651 65.7561C6.13704 66.5687 7.05753 67.0307 7.69956 66.5406L17.8149 58.819C17.9841 58.6899 18.1903 58.62 18.4024 58.6198L25.5488 58.6152ZM27.818 47.0428C27.8182 47.3555 27.6712 47.6498 27.4219 47.8354L23.4472 50.7962C23.2797 50.921 23.0771 50.9883 22.8689 50.9885L17.0956 50.9923C16.5571 50.9926 16.1203 50.5522 16.1199 50.0086L16.1171 45.5844C16.1168 45.2716 16.2639 44.9774 16.5132 44.7917L20.4879 41.8309C20.6554 41.7062 20.858 41.6388 21.0661 41.6387L26.8395 41.6349C27.3779 41.6345 27.8148 42.0749 27.8151 42.6186L27.818 47.0428Z" fill="#2DB354"></path></svg>