<svg xmlns="http://www.w3.org/2000/svg" width="32" height="32" viewBox="0 0 32 32" fill="none"><g clip-path="url(#clip0_307_1859)"><path d="M8.50934 7.95737C10.6343 6.25479 13.2771 5.32903 16 5.33337C18.8333 5.33337 21.4373 6.31471 23.4907 7.95737L25.428 6.02004L27.3133 7.90537L25.376 9.84271C26.7863 11.6082 27.6694 13.7361 27.9237 15.9814C28.1781 18.2266 27.7933 20.4981 26.8137 22.5344C25.8341 24.5706 24.2995 26.2889 22.3864 27.4915C20.4734 28.6941 18.2596 29.3321 16 29.3321C13.7404 29.3321 11.5266 28.6941 9.61359 27.4915C7.70054 26.2889 6.16591 24.5706 5.1863 22.5344C4.20669 20.4981 3.82192 18.2266 4.07627 15.9814C4.33061 13.7361 5.21373 11.6082 6.62401 9.84271L4.68667 7.90671L6.57201 6.02137L8.50934 7.95871V7.95737ZM16 26.6667C17.2257 26.6667 18.4393 26.4253 19.5717 25.9562C20.7041 25.4872 21.733 24.7997 22.5997 23.933C23.4663 23.0664 24.1538 22.0375 24.6229 20.9051C25.0919 19.7727 25.3333 18.559 25.3333 17.3334C25.3333 16.1077 25.0919 14.894 24.6229 13.7617C24.1538 12.6293 23.4663 11.6004 22.5997 10.7337C21.733 9.86703 20.7041 9.17954 19.5717 8.7105C18.4393 8.24145 17.2257 8.00004 16 8.00004C13.5247 8.00004 11.1507 8.98337 9.40034 10.7337C7.65 12.4841 6.66667 14.858 6.66667 17.3334C6.66667 19.8087 7.65 22.1827 9.40034 23.933C11.1507 25.6834 13.5247 26.6667 16 26.6667V26.6667ZM17.3333 16H21.3333L14.6667 24.6667V18.6667H10.6667L17.3333 9.99337V16ZM10.6667 1.33337H21.3333V4.00004H10.6667V1.33337Z" fill="#22D3EE"></path></g><defs><clipPath id="clip0_307_1859"><rect width="32" height="32" fill="white"></rect></clipPath></defs></svg>