<svg xmlns="http://www.w3.org/2000/svg" width="48" height="48" viewBox="0 0 48 48" fill="none"><rect width="48" height="48" rx="24" fill="#198340"></rect><path d="M23.947 9.70996C27.7647 9.71161 31.3483 11.198 34.0427 13.8955C36.737 16.5928 38.22 20.1782 38.2185 23.9912C38.2153 31.858 31.8154 38.2595 23.947 38.2627H23.9412C21.5529 38.2618 19.2061 37.6623 17.1218 36.5254L9.5564 38.5098L11.5808 31.1152C10.332 28.951 9.67549 26.4956 9.67651 23.9805C9.67964 16.112 16.081 9.71013 23.947 9.70996ZM23.9519 12.1201C17.4092 12.1202 12.0883 17.4416 12.0857 23.9814C12.0849 26.2226 12.7119 28.4055 13.8992 30.2939L14.1814 30.7422L12.9832 35.1191L17.4724 33.9414L17.905 34.1992C19.7262 35.2799 21.8146 35.8517 23.9431 35.8525H23.947C30.4848 35.8525 35.8067 30.5307 35.8093 23.9902C35.8105 20.8209 34.577 17.8406 32.3376 15.5986C30.0982 13.3568 27.12 12.1212 23.9519 12.1201ZM18.8953 17.3896C19.1327 17.3897 19.3703 17.3919 19.5779 17.4023C19.7967 17.4133 20.0911 17.3193 20.3806 18.0146C20.6778 18.7288 21.3911 20.4836 21.4802 20.6621C21.5694 20.8406 21.6284 21.049 21.5095 21.2871C21.3907 21.5248 21.3313 21.6737 21.1531 21.8818C20.9748 22.09 20.7783 22.347 20.6179 22.5068C20.4395 22.6846 20.2538 22.8776 20.4617 23.2344C20.6697 23.5914 21.386 24.7585 22.446 25.7041C23.8081 26.919 24.9566 27.2961 25.3132 27.4746C25.6696 27.6531 25.8777 27.6227 26.0857 27.3848C26.2938 27.1467 26.9767 26.3444 27.2146 25.9873C27.4523 25.6304 27.6905 25.6896 28.0173 25.8086C28.3449 25.928 30.0974 26.7903 30.4539 26.9688C30.8103 27.1472 31.0483 27.2361 31.1375 27.3848C31.2266 27.5334 31.2264 28.248 30.9294 29.0811C30.632 29.9139 29.2073 30.674 28.5222 30.7764C27.9079 30.8682 27.1303 30.9062 26.2761 30.6348C25.7583 30.4705 25.0944 30.2511 24.2439 29.8838C20.6668 28.3392 18.3304 24.7371 18.1521 24.499C17.9731 24.2602 16.696 22.5652 16.696 20.8105C16.6961 19.0556 17.6173 18.1929 17.9441 17.8359C18.2709 17.479 18.6576 17.3896 18.8953 17.3896Z" fill="#FDFDFD"></path></svg>