<svg xmlns="http://www.w3.org/2000/svg" width="20" height="22" viewBox="0 0 20 22" fill="none"><path d="M1.99999 12.9999C1.81076 13.0006 1.62522 12.9475 1.46495 12.8469C1.30467 12.7463 1.17623 12.6023 1.09454 12.4316C1.01286 12.2609 0.981285 12.0705 1.00349 11.8826C1.0257 11.6946 1.10077 11.5169 1.21999 11.3699L11.12 1.16992C11.1943 1.0842 11.2955 1.02628 11.407 1.00565C11.5185 0.985028 11.6337 1.00293 11.7337 1.05642C11.8337 1.10991 11.9126 1.19582 11.9573 1.30003C12.0021 1.40424 12.0101 1.52057 11.98 1.62992L10.06 7.64992C10.0034 7.80144 9.98436 7.96444 10.0046 8.12493C10.0248 8.28541 10.0837 8.4386 10.1761 8.57135C10.2685 8.70409 10.3918 8.81243 10.5353 8.88708C10.6788 8.96172 10.8382 9.00045 11 8.99992H18C18.1892 8.99927 18.3748 9.05234 18.535 9.15294C18.6953 9.25355 18.8238 9.39756 18.9054 9.56826C18.9871 9.73896 19.0187 9.92933 18.9965 10.1173C18.9743 10.3052 18.8992 10.483 18.78 10.6299L8.87999 20.8299C8.80573 20.9156 8.70453 20.9736 8.59301 20.9942C8.48149 21.0148 8.36627 20.9969 8.26626 20.9434C8.16626 20.8899 8.08741 20.804 8.04266 20.6998C7.99791 20.5956 7.98991 20.4793 8.01999 20.3699L9.93999 14.3499C9.99661 14.1984 10.0156 14.0354 9.9954 13.8749C9.97518 13.7144 9.91633 13.5612 9.8239 13.4285C9.73147 13.2957 9.60822 13.1874 9.46472 13.1128C9.32121 13.0381 9.16175 12.9994 8.99999 12.9999H1.99999Z" stroke="#C084FC" stroke-width="2" stroke-linecap="round" stroke-linejoin="round"></path></svg>