<svg xmlns="http://www.w3.org/2000/svg" width="28" height="30" viewBox="0 0 28 30" fill="none"><path d="M3.33336 17.6667C3.08105 17.6675 2.83367 17.5968 2.61997 17.4627C2.40626 17.3285 2.23501 17.1365 2.1261 16.9089C2.01718 16.6813 1.97509 16.4275 2.0047 16.1769C2.0343 15.9263 2.1344 15.6893 2.29336 15.4933L15.4934 1.89335C15.5924 1.77906 15.7273 1.70182 15.876 1.67432C16.0247 1.64683 16.1783 1.6707 16.3117 1.74202C16.445 1.81334 16.5501 1.92788 16.6098 2.06682C16.6695 2.20577 16.6801 2.36088 16.64 2.50668L14.08 10.5333C14.0045 10.7354 13.9792 10.9527 14.0062 11.1667C14.0331 11.3807 14.1116 11.5849 14.2348 11.7619C14.3581 11.9389 14.5224 12.0834 14.7137 12.1829C14.9051 12.2824 15.1177 12.334 15.3334 12.3333H24.6667C24.919 12.3325 25.1664 12.4032 25.3801 12.5374C25.5938 12.6715 25.7651 12.8635 25.874 13.0911C25.9829 13.3187 26.025 13.5726 25.9954 13.8231C25.9658 14.0737 25.8657 14.3107 25.7067 14.5067L12.5067 28.1067C12.4077 28.221 12.2728 28.2982 12.1241 28.3257C11.9754 28.3532 11.8217 28.3293 11.6884 28.258C11.555 28.1867 11.4499 28.0722 11.3903 27.9332C11.3306 27.7943 11.3199 27.6392 11.36 27.4933L13.92 19.4667C13.9955 19.2646 14.0209 19.0473 13.9939 18.8333C13.9669 18.6194 13.8885 18.4151 13.7652 18.2381C13.642 18.0611 13.4777 17.9167 13.2863 17.8171C13.095 17.7176 12.8824 17.666 12.6667 17.6667H3.33336Z" stroke="#22D3EE" stroke-width="2.66667" stroke-linecap="round" stroke-linejoin="round"></path></svg>