<svg xmlns="http://www.w3.org/2000/svg" width="26" height="24" viewBox="0 0 26 24" fill="none"><path d="M4.66659 20C4.09367 20 3.60339 19.8043 3.19575 19.413C2.78811 19.0217 2.58395 18.5507 2.58325 18V6C2.58325 5.45 2.78742 4.97933 3.19575 4.588C3.60409 4.19667 4.09436 4.00067 4.66659 4H21.3333C21.9062 4 22.3968 4.196 22.8051 4.588C23.2135 4.98 23.4173 5.45067 23.4166 6V18C23.4166 18.55 23.2128 19.021 22.8051 19.413C22.3975 19.805 21.9069 20.0007 21.3333 20H4.66659ZM21.3333 8L13.5468 12.675C13.46 12.725 13.369 12.7627 13.2739 12.788C13.1787 12.8133 13.0874 12.8257 12.9999 12.825C12.9124 12.8243 12.8214 12.812 12.727 12.788C12.6326 12.764 12.5412 12.7263 12.453 12.675L4.66659 8V18H21.3333V8ZM12.9999 11L21.3333 6H4.66659L12.9999 11ZM4.66659 8.25V6.775V6.8V6.788V8.25Z" fill="#F5F5F5"></path></svg>