<svg xmlns="http://www.w3.org/2000/svg" width="512" height="512" viewBox="0 0 512 512" fill="none"><path fill-rule="evenodd" clip-rule="evenodd" d="M314.247 393.886L418.514 314.992C429.213 306.897 435.5 294.242 435.5 280.813V152.281L435.5 136.513L435.5 120.745V77.8837C435.5 42.2061 395.135 22.9749 367.345 43.3842L308.985 86.2451L276.875 109.45H222.516C213.217 109.45 204.172 112.487 196.753 118.102L92.4863 196.995C81.7873 205.091 75.5 217.745 75.5 231.174V434.035C75.5 469.383 115.84 489.532 144.014 468.214L230.813 402.538H288.484C297.783 402.538 306.828 399.5 314.247 393.886ZM222.516 368.725C220.559 368.725 218.655 369.364 217.093 370.546L123.673 441.232C117.744 445.719 109.25 441.48 109.25 434.035V231.174C109.25 228.346 110.574 225.682 112.827 223.977L217.093 145.084C218.655 143.902 220.559 143.262 222.516 143.262H392.75C397.721 143.262 401.75 147.3 401.75 152.281V280.813C401.75 283.641 400.426 286.306 398.173 288.01L293.907 366.903C292.345 368.085 290.441 368.725 288.484 368.725H222.516ZM334.329 129.738C325.591 129.738 321.915 118.674 328.939 113.515L334.475 109.45L387.299 70.6547C393.279 66.2623 401.75 70.4996 401.75 77.8837V110.4V120.745C401.75 125.711 397.693 129.738 392.689 129.738H334.329Z" fill="#09090B"></path><path d="M309.5 262.71C309.5 265.575 308.141 268.27 305.839 269.97L269.131 297.073C267.584 298.215 265.714 298.831 263.792 298.831H210.5C205.529 298.831 201.5 294.794 201.5 289.813V249.278C201.5 246.412 202.859 243.717 205.161 242.017L241.869 214.914C243.416 213.772 245.286 213.156 247.208 213.156H300.5C305.471 213.156 309.5 217.193 309.5 222.174V262.71Z" fill="#09090B"></path><path fill-rule="evenodd" clip-rule="evenodd" d="M288.484 368.724C290.441 368.724 292.345 368.085 293.907 366.903L398.173 288.009C400.426 286.305 401.75 283.64 401.75 280.812V152.28C401.75 147.299 397.721 143.262 392.75 143.262H222.516C220.559 143.262 218.655 143.901 217.093 145.083L112.827 223.977C110.574 225.681 109.25 228.345 109.25 231.174V368.724V434.034C109.25 441.479 117.744 445.718 123.673 441.231L217.093 370.545C218.655 369.363 220.559 368.724 222.516 368.724H288.484ZM309.5 262.709C309.5 265.574 308.141 268.269 305.839 269.969L269.131 297.073C267.584 298.215 265.714 298.831 263.792 298.831H210.5C205.529 298.831 201.5 294.793 201.5 289.812V249.277C201.5 246.411 202.859 243.716 205.161 242.016L241.869 214.913C243.416 213.771 245.286 213.155 247.208 213.155H300.5C305.471 213.155 309.5 217.193 309.5 222.173V262.709Z" fill="#2DB354"></path><path fill-rule="evenodd" clip-rule="evenodd" d="M328.939 113.516C321.915 118.674 325.591 129.738 334.329 129.738H392.689C397.693 129.738 401.75 125.712 401.75 120.745V77.8843C401.75 70.5002 393.279 66.2629 387.299 70.6553L328.939 113.516Z" fill="#9F75DF"></path></svg>